<svg xmlns="http://www.w3.org/2000/svg" viewBox="-99.20 -19.00 810.89 309.57" width="811" height="310">
<polygon points="13.31,-2.67 24.73,1.03 13.31,4.74 1.90,1.03" fill="#006d32"/>
<polygon points="1.90,8.03 1.90,1.03 13.31,4.74 13.31,11.74" fill="#005f2c"/>
<polygon points="13.31,11.74 13.31,4.74 24.73,1.03 24.73,8.03" fill="#005025"/>
<polygon points="26.63,4.65 38.04,8.36 26.63,12.07 15.22,8.36" fill="#0e4429"/>
<polygon points="15.22,12.36 15.22,8.36 26.63,12.07 26.63,16.07" fill="#0c3b24"/>
<polygon points="26.63,16.07 26.63,12.07 38.04,8.36 38.04,12.36" fill="#0a321e"/>
<polygon points="0.00,-4.35 11.41,-0.64 0.00,3.07 -11.41,-0.64" fill="#39d353"/>
<polygon points="-11.41,12.36 -11.41,-0.64 0.00,3.07 0.00,16.07" fill="#32b949"/>
<polygon points="0.00,16.07 0.00,3.07 11.41,-0.64 11.41,12.36" fill="#2a9c3d"/>
<polygon points="-13.31,11.98 -1.90,15.69 -13.31,19.40 -24.73,15.69" fill="#161b22"/>
<polygon points="-24.73,16.69 -24.73,15.69 -13.31,19.40 -13.31,20.40" fill="#13171d"/>
<polygon points="-13.31,20.40 -13.31,19.40 -1.90,15.69 -1.90,16.69" fill="#101319"/>
<polygon points="39.94,11.98 51.36,15.69 39.94,19.40 28.53,15.69" fill="#161b22"/>
<polygon points="28.53,16.69 28.53,15.69 39.94,19.40 39.94,20.40" fill="#13171d"/>
<polygon points="39.94,20.40 39.94,19.40 51.36,15.69 51.36,16.69" fill="#101319"/>
<polygon points="13.31,5.98 24.73,9.69 13.31,13.40 1.90,9.69" fill="#006d32"/>
<polygon points="1.90,16.69 1.90,9.69 13.31,13.40 13.31,20.40" fill="#005f2c"/>
<polygon points="13.31,20.40 13.31,13.40 24.73,9.69 24.73,16.69" fill="#005025"/>
<polygon points="-26.63,16.30 -15.22,20.01 -26.63,23.72 -38.04,20.01" fill="#161b22"/>
<polygon points="-38.04,21.01 -38.04,20.01 -26.63,23.72 -26.63,24.72" fill="#13171d"/>
<polygon points="-26.63,24.72 -26.63,23.72 -15.22,20.01 -15.22,21.01" fill="#101319"/>
<polygon points="53.26,16.30 64.67,20.01 53.26,23.72 41.85,20.01" fill="#161b22"/>
<polygon points="41.85,21.01 41.85,20.01 53.26,23.72 53.26,24.72" fill="#13171d"/>
<polygon points="53.26,24.72 53.26,23.72 64.67,20.01 64.67,21.01" fill="#101319"/>
<polygon points="0.00,13.30 11.41,17.01 0.00,20.72 -11.41,17.01" fill="#0e4429"/>
<polygon points="-11.41,21.01 -11.41,17.01 0.00,20.72 0.00,24.72" fill="#0c3b24"/>
<polygon points="0.00,24.72 0.00,20.72 11.41,17.01 11.41,21.01" fill="#0a321e"/>
<polygon points="26.63,13.30 38.04,17.01 26.63,20.72 15.22,17.01" fill="#0e4429"/>
<polygon points="15.22,21.01 15.22,17.01 26.63,20.72 26.63,24.72" fill="#0c3b24"/>
<polygon points="26.63,24.72 26.63,20.72 38.04,17.01 38.04,21.01" fill="#0a321e"/>
<polygon points="-39.94,20.63 -28.53,24.34 -39.94,28.05 -51.36,24.34" fill="#161b22"/>
<polygon points="-51.36,25.34 -51.36,24.34 -39.94,28.05 -39.94,29.05" fill="#13171d"/>
<polygon points="-39.94,29.05 -39.94,28.05 -28.53,24.34 -28.53,25.34" fill="#101319"/>
<polygon points="-13.31,20.63 -1.90,24.34 -13.31,28.05 -24.73,24.34" fill="#161b22"/>
<polygon points="-24.73,25.34 -24.73,24.34 -13.31,28.05 -13.31,29.05" fill="#13171d"/>
<polygon points="-13.31,29.05 -13.31,28.05 -1.90,24.34 -1.90,25.34" fill="#101319"/>
<polygon points="13.31,20.63 24.73,24.34 13.31,28.05 1.90,24.34" fill="#161b22"/>
<polygon points="1.90,25.34 1.90,24.34 13.31,28.05 13.31,29.05" fill="#13171d"/>
<polygon points="13.31,29.05 13.31,28.05 24.73,24.34 24.73,25.34" fill="#101319"/>
<polygon points="39.94,20.63 51.36,24.34 39.94,28.05 28.53,24.34" fill="#161b22"/>
<polygon points="28.53,25.34 28.53,24.34 39.94,28.05 39.94,29.05" fill="#13171d"/>
<polygon points="39.94,29.05 39.94,28.05 51.36,24.34 51.36,25.34" fill="#101319"/>
<polygon points="-66.57,17.63 -55.16,21.34 -66.57,25.05 -77.99,21.34" fill="#0e4429"/>
<polygon points="-77.99,25.34 -77.99,21.34 -66.57,25.05 -66.57,29.05" fill="#0c3b24"/>
<polygon points="-66.57,29.05 -66.57,25.05 -55.16,21.34 -55.16,25.34" fill="#0a321e"/>
<polygon points="66.57,17.63 77.99,21.34 66.57,25.05 55.16,21.34" fill="#0e4429"/>
<polygon points="55.16,25.34 55.16,21.34 66.57,25.05 66.57,29.05" fill="#0c3b24"/>
<polygon points="66.57,29.05 66.57,25.05 77.99,21.34 77.99,25.34" fill="#0a321e"/>
<polygon points="-26.63,24.96 -15.22,28.67 -26.63,32.37 -38.04,28.67" fill="#161b22"/>
<polygon points="-38.04,29.67 -38.04,28.67 -26.63,32.37 -26.63,33.37" fill="#13171d"/>
<polygon points="-26.63,33.37 -26.63,32.37 -15.22,28.67 -15.22,29.67" fill="#101319"/>
<polygon points="26.63,24.96 38.04,28.67 26.63,32.37 15.22,28.67" fill="#161b22"/>
<polygon points="15.22,29.67 15.22,28.67 26.63,32.37 26.63,33.37" fill="#13171d"/>
<polygon points="26.63,33.37 26.63,32.37 38.04,28.67 38.04,29.67" fill="#101319"/>
<polygon points="53.26,24.96 64.67,28.67 53.26,32.37 41.85,28.67" fill="#161b22"/>
<polygon points="41.85,29.67 41.85,28.67 53.26,32.37 53.26,33.37" fill="#13171d"/>
<polygon points="53.26,33.37 53.26,32.37 64.67,28.67 64.67,29.67" fill="#101319"/>
<polygon points="79.89,24.96 91.30,28.67 79.89,32.37 68.48,28.67" fill="#161b22"/>
<polygon points="68.48,29.67 68.48,28.67 79.89,32.37 79.89,33.37" fill="#13171d"/>
<polygon points="79.89,33.37 79.89,32.37 91.30,28.67 91.30,29.67" fill="#101319"/>
<polygon points="-79.89,21.96 -68.48,25.67 -79.89,29.37 -91.30,25.67" fill="#0e4429"/>
<polygon points="-91.30,29.67 -91.30,25.67 -79.89,29.37 -79.89,33.37" fill="#0c3b24"/>
<polygon points="-79.89,33.37 -79.89,29.37 -68.48,25.67 -68.48,29.67" fill="#0a321e"/>
<polygon points="-53.26,21.96 -41.85,25.67 -53.26,29.37 -64.67,25.67" fill="#0e4429"/>
<polygon points="-64.67,29.67 -64.67,25.67 -53.26,29.37 -53.26,33.37" fill="#0c3b24"/>
<polygon points="-53.26,33.37 -53.26,29.37 -41.85,25.67 -41.85,29.67" fill="#0a321e"/>
<polygon points="0.00,21.96 11.41,25.67 0.00,29.37 -11.41,25.67" fill="#0e4429"/>
<polygon points="-11.41,29.67 -11.41,25.67 0.00,29.37 0.00,33.37" fill="#0c3b24"/>
<polygon points="0.00,33.37 0.00,29.37 11.41,25.67 11.41,29.67" fill="#0a321e"/>
<polygon points="-66.57,29.28 -55.16,32.99 -66.57,36.70 -77.99,32.99" fill="#161b22"/>
<polygon points="-77.99,33.99 -77.99,32.99 -66.57,36.70 -66.57,37.70" fill="#13171d"/>
<polygon points="-66.57,37.70 -66.57,36.70 -55.16,32.99 -55.16,33.99" fill="#101319"/>
<polygon points="-13.31,29.28 -1.90,32.99 -13.31,36.70 -24.73,32.99" fill="#161b22"/>
<polygon points="-24.73,33.99 -24.73,32.99 -13.31,36.70 -13.31,37.70" fill="#13171d"/>
<polygon points="-13.31,37.70 -13.31,36.70 -1.90,32.99 -1.90,33.99" fill="#101319"/>
<polygon points="39.94,29.28 51.36,32.99 39.94,36.70 28.53,32.99" fill="#161b22"/>
<polygon points="28.53,33.99 28.53,32.99 39.94,36.70 39.94,37.70" fill="#13171d"/>
<polygon points="39.94,37.70 39.94,36.70 51.36,32.99 51.36,33.99" fill="#101319"/>
<polygon points="66.57,29.28 77.99,32.99 66.57,36.70 55.16,32.99" fill="#161b22"/>
<polygon points="55.16,33.99 55.16,32.99 66.57,36.70 66.57,37.70" fill="#13171d"/>
<polygon points="66.57,37.70 66.57,36.70 77.99,32.99 77.99,33.99" fill="#101319"/>
<polygon points="93.20,29.28 104.62,32.99 93.20,36.70 81.79,32.99" fill="#161b22"/>
<polygon points="81.79,33.99 81.79,32.99 93.20,36.70 93.20,37.70" fill="#13171d"/>
<polygon points="93.20,37.70 93.20,36.70 104.62,32.99 104.62,33.99" fill="#101319"/>
<polygon points="-39.94,23.28 -28.53,26.99 -39.94,30.70 -51.36,26.99" fill="#006d32"/>
<polygon points="-51.36,33.99 -51.36,26.99 -39.94,30.70 -39.94,37.70" fill="#005f2c"/>
<polygon points="-39.94,37.70 -39.94,30.70 -28.53,26.99 -28.53,33.99" fill="#005025"/>
<polygon points="13.31,20.28 24.73,23.99 13.31,27.70 1.90,23.99" fill="#26a641"/>
<polygon points="1.90,33.99 1.90,23.99 13.31,27.70 13.31,37.70" fill="#219239"/>
<polygon points="13.31,37.70 13.31,27.70 24.73,23.99 24.73,33.99" fill="#1c7a30"/>
<polygon points="-26.63,33.61 -15.22,37.32 -26.63,41.03 -38.04,37.32" fill="#161b22"/>
<polygon points="-38.04,38.32 -38.04,37.32 -26.63,41.03 -26.63,42.03" fill="#13171d"/>
<polygon points="-26.63,42.03 -26.63,41.03 -15.22,37.32 -15.22,38.32" fill="#101319"/>
<polygon points="0.00,33.61 11.41,37.32 0.00,41.03 -11.41,37.32" fill="#161b22"/>
<polygon points="-11.41,38.32 -11.41,37.32 0.00,41.03 0.00,42.03" fill="#13171d"/>
<polygon points="0.00,42.03 0.00,41.03 11.41,37.32 11.41,38.32" fill="#101319"/>
<polygon points="26.63,33.61 38.04,37.32 26.63,41.03 15.22,37.32" fill="#161b22"/>
<polygon points="15.22,38.32 15.22,37.32 26.63,41.03 26.63,42.03" fill="#13171d"/>
<polygon points="26.63,42.03 26.63,41.03 38.04,37.32 38.04,38.32" fill="#101319"/>
<polygon points="53.26,33.61 64.67,37.32 53.26,41.03 41.85,37.32" fill="#161b22"/>
<polygon points="41.85,38.32 41.85,37.32 53.26,41.03 53.26,42.03" fill="#13171d"/>
<polygon points="53.26,42.03 53.26,41.03 64.67,37.32 64.67,38.32" fill="#101319"/>
<polygon points="106.52,33.61 117.93,37.32 106.52,41.03 95.11,37.32" fill="#161b22"/>
<polygon points="95.11,38.32 95.11,37.32 106.52,41.03 106.52,42.03" fill="#13171d"/>
<polygon points="106.52,42.03 106.52,41.03 117.93,37.32 117.93,38.32" fill="#101319"/>
<polygon points="-53.26,30.61 -41.85,34.32 -53.26,38.03 -64.67,34.32" fill="#0e4429"/>
<polygon points="-64.67,38.32 -64.67,34.32 -53.26,38.03 -53.26,42.03" fill="#0c3b24"/>
<polygon points="-53.26,42.03 -53.26,38.03 -41.85,34.32 -41.85,38.32" fill="#0a321e"/>
<polygon points="79.89,30.61 91.30,34.32 79.89,38.03 68.48,34.32" fill="#0e4429"/>
<polygon points="68.48,38.32 68.48,34.32 79.89,38.03 79.89,42.03" fill="#0c3b24"/>
<polygon points="79.89,42.03 79.89,38.03 91.30,34.32 91.30,38.32" fill="#0a321e"/>
<polygon points="-39.94,37.94 -28.53,41.64 -39.94,45.35 -51.36,41.64" fill="#161b22"/>
<polygon points="-51.36,42.64 -51.36,41.64 -39.94,45.35 -39.94,46.35" fill="#13171d"/>
<polygon points="-39.94,46.35 -39.94,45.35 -28.53,41.64 -28.53,42.64" fill="#101319"/>
<polygon points="-13.31,37.94 -1.90,41.64 -13.31,45.35 -24.73,41.64" fill="#161b22"/>
<polygon points="-24.73,42.64 -24.73,41.64 -13.31,45.35 -13.31,46.35" fill="#13171d"/>
<polygon points="-13.31,46.35 -13.31,45.35 -1.90,41.64 -1.90,42.64" fill="#101319"/>
<polygon points="13.31,37.94 24.73,41.64 13.31,45.35 1.90,41.64" fill="#161b22"/>
<polygon points="1.90,42.64 1.90,41.64 13.31,45.35 13.31,46.35" fill="#13171d"/>
<polygon points="13.31,46.35 13.31,45.35 24.73,41.64 24.73,42.64" fill="#101319"/>
<polygon points="39.94,37.94 51.36,41.64 39.94,45.35 28.53,41.64" fill="#161b22"/>
<polygon points="28.53,42.64 28.53,41.64 39.94,45.35 39.94,46.35" fill="#13171d"/>
<polygon points="39.94,46.35 39.94,45.35 51.36,41.64 51.36,42.64" fill="#101319"/>
<polygon points="119.83,37.94 131.25,41.64 119.83,45.35 108.42,41.64" fill="#161b22"/>
<polygon points="108.42,42.64 108.42,41.64 119.83,45.35 119.83,46.35" fill="#13171d"/>
<polygon points="119.83,46.35 119.83,45.35 131.25,41.64 131.25,42.64" fill="#101319"/>
<polygon points="93.20,31.94 104.62,35.64 93.20,39.35 81.79,35.64" fill="#006d32"/>
<polygon points="81.79,42.64 81.79,35.64 93.20,39.35 93.20,46.35" fill="#005f2c"/>
<polygon points="93.20,46.35 93.20,39.35 104.62,35.64 104.62,42.64" fill="#005025"/>
<polygon points="66.57,28.94 77.99,32.64 66.57,36.35 55.16,32.64" fill="#26a641"/>
<polygon points="55.16,42.64 55.16,32.64 66.57,36.35 66.57,46.35" fill="#219239"/>
<polygon points="66.57,46.35 66.57,36.35 77.99,32.64 77.99,42.64" fill="#1c7a30"/>
<polygon points="-26.63,42.26 -15.22,45.97 -26.63,49.68 -38.04,45.97" fill="#161b22"/>
<polygon points="-38.04,46.97 -38.04,45.97 -26.63,49.68 -26.63,50.68" fill="#13171d"/>
<polygon points="-26.63,50.68 -26.63,49.68 -15.22,45.97 -15.22,46.97" fill="#101319"/>
<polygon points="0.00,42.26 11.41,45.97 0.00,49.68 -11.41,45.97" fill="#161b22"/>
<polygon points="-11.41,46.97 -11.41,45.97 0.00,49.68 0.00,50.68" fill="#13171d"/>
<polygon points="0.00,50.68 0.00,49.68 11.41,45.97 11.41,46.97" fill="#101319"/>
<polygon points="26.63,42.26 38.04,45.97 26.63,49.68 15.22,45.97" fill="#161b22"/>
<polygon points="15.22,46.97 15.22,45.97 26.63,49.68 26.63,50.68" fill="#13171d"/>
<polygon points="26.63,50.68 26.63,49.68 38.04,45.97 38.04,46.97" fill="#101319"/>
<polygon points="133.15,42.26 144.56,45.97 133.15,49.68 121.74,45.97" fill="#161b22"/>
<polygon points="121.74,46.97 121.74,45.97 133.15,49.68 133.15,50.68" fill="#13171d"/>
<polygon points="133.15,50.68 133.15,49.68 144.56,45.97 144.56,46.97" fill="#101319"/>
<polygon points="79.89,39.26 91.30,42.97 79.89,46.68 68.48,42.97" fill="#0e4429"/>
<polygon points="68.48,46.97 68.48,42.97 79.89,46.68 79.89,50.68" fill="#0c3b24"/>
<polygon points="79.89,50.68 79.89,46.68 91.30,42.97 91.30,46.97" fill="#0a321e"/>
<polygon points="106.52,33.26 117.93,36.97 106.52,40.68 95.11,36.97" fill="#26a641"/>
<polygon points="95.11,46.97 95.11,36.97 106.52,40.68 106.52,50.68" fill="#219239"/>
<polygon points="106.52,50.68 106.52,40.68 117.93,36.97 117.93,46.97" fill="#1c7a30"/>
<polygon points="53.26,30.26 64.67,33.97 53.26,37.68 41.85,33.97" fill="#39d353"/>
<polygon points="41.85,46.97 41.85,33.97 53.26,37.68 53.26,50.68" fill="#32b949"/>
<polygon points="53.26,50.68 53.26,37.68 64.67,33.97 64.67,46.97" fill="#2a9c3d"/>
<polygon points="-13.31,46.59 -1.90,50.30 -13.31,54.01 -24.73,50.30" fill="#161b22"/>
<polygon points="-24.73,51.30 -24.73,50.30 -13.31,54.01 -13.31,55.01" fill="#13171d"/>
<polygon points="-13.31,55.01 -13.31,54.01 -1.90,50.30 -1.90,51.30" fill="#101319"/>
<polygon points="13.31,46.59 24.73,50.30 13.31,54.01 1.90,50.30" fill="#161b22"/>
<polygon points="1.90,51.30 1.90,50.30 13.31,54.01 13.31,55.01" fill="#13171d"/>
<polygon points="13.31,55.01 13.31,54.01 24.73,50.30 24.73,51.30" fill="#101319"/>
<polygon points="119.83,43.59 131.25,47.30 119.83,51.01 108.42,47.30" fill="#0e4429"/>
<polygon points="108.42,51.30 108.42,47.30 119.83,51.01 119.83,55.01" fill="#0c3b24"/>
<polygon points="119.83,55.01 119.83,51.01 131.25,47.30 131.25,51.30" fill="#0a321e"/>
<polygon points="146.46,43.59 157.88,47.30 146.46,51.01 135.05,47.30" fill="#0e4429"/>
<polygon points="135.05,51.30 135.05,47.30 146.46,51.01 146.46,55.01" fill="#0c3b24"/>
<polygon points="146.46,55.01 146.46,51.01 157.88,47.30 157.88,51.30" fill="#0a321e"/>
<polygon points="66.57,40.59 77.99,44.30 66.57,48.01 55.16,44.30" fill="#006d32"/>
<polygon points="55.16,51.30 55.16,44.30 66.57,48.01 66.57,55.01" fill="#005f2c"/>
<polygon points="66.57,55.01 66.57,48.01 77.99,44.30 77.99,51.30" fill="#005025"/>
<polygon points="93.20,37.59 104.62,41.30 93.20,45.01 81.79,41.30" fill="#26a641"/>
<polygon points="81.79,51.30 81.79,41.30 93.20,45.01 93.20,55.01" fill="#219239"/>
<polygon points="93.20,55.01 93.20,45.01 104.62,41.30 104.62,51.30" fill="#1c7a30"/>
<polygon points="39.94,34.59 51.36,38.30 39.94,42.01 28.53,38.30" fill="#39d353"/>
<polygon points="28.53,51.30 28.53,38.30 39.94,42.01 39.94,55.01" fill="#32b949"/>
<polygon points="39.94,55.01 39.94,42.01 51.36,38.30 51.36,51.30" fill="#2a9c3d"/>
<polygon points="0.00,50.91 11.41,54.62 0.00,58.33 -11.41,54.62" fill="#161b22"/>
<polygon points="-11.41,55.62 -11.41,54.62 0.00,58.33 0.00,59.33" fill="#13171d"/>
<polygon points="0.00,59.33 0.00,58.33 11.41,54.62 11.41,55.62" fill="#101319"/>
<polygon points="53.26,50.91 64.67,54.62 53.26,58.33 41.85,54.62" fill="#161b22"/>
<polygon points="41.85,55.62 41.85,54.62 53.26,58.33 53.26,59.33" fill="#13171d"/>
<polygon points="53.26,59.33 53.26,58.33 64.67,54.62 64.67,55.62" fill="#101319"/>
<polygon points="106.52,50.91 117.93,54.62 106.52,58.33 95.11,54.62" fill="#161b22"/>
<polygon points="95.11,55.62 95.11,54.62 106.52,58.33 106.52,59.33" fill="#13171d"/>
<polygon points="106.52,59.33 106.52,58.33 117.93,54.62 117.93,55.62" fill="#101319"/>
<polygon points="133.15,50.91 144.56,54.62 133.15,58.33 121.74,54.62" fill="#161b22"/>
<polygon points="121.74,55.62 121.74,54.62 133.15,58.33 133.15,59.33" fill="#13171d"/>
<polygon points="133.15,59.33 133.15,58.33 144.56,54.62 144.56,55.62" fill="#101319"/>
<polygon points="159.78,50.91 171.19,54.62 159.78,58.33 148.36,54.62" fill="#161b22"/>
<polygon points="148.36,55.62 148.36,54.62 159.78,58.33 159.78,59.33" fill="#13171d"/>
<polygon points="159.78,59.33 159.78,58.33 171.19,54.62 171.19,55.62" fill="#101319"/>
<polygon points="26.63,47.91 38.04,51.62 26.63,55.33 15.22,51.62" fill="#0e4429"/>
<polygon points="15.22,55.62 15.22,51.62 26.63,55.33 26.63,59.33" fill="#0c3b24"/>
<polygon points="26.63,59.33 26.63,55.33 38.04,51.62 38.04,55.62" fill="#0a321e"/>
<polygon points="79.89,41.91 91.30,45.62 79.89,49.33 68.48,45.62" fill="#26a641"/>
<polygon points="68.48,55.62 68.48,45.62 79.89,49.33 79.89,59.33" fill="#219239"/>
<polygon points="79.89,59.33 79.89,49.33 91.30,45.62 91.30,55.62" fill="#1c7a30"/>
<polygon points="13.31,55.24 24.73,58.95 13.31,62.66 1.90,58.95" fill="#161b22"/>
<polygon points="1.90,59.95 1.90,58.95 13.31,62.66 13.31,63.66" fill="#13171d"/>
<polygon points="13.31,63.66 13.31,62.66 24.73,58.95 24.73,59.95" fill="#101319"/>
<polygon points="39.94,55.24 51.36,58.95 39.94,62.66 28.53,58.95" fill="#161b22"/>
<polygon points="28.53,59.95 28.53,58.95 39.94,62.66 39.94,63.66" fill="#13171d"/>
<polygon points="39.94,63.66 39.94,62.66 51.36,58.95 51.36,59.95" fill="#101319"/>
<polygon points="146.46,55.24 157.88,58.95 146.46,62.66 135.05,58.95" fill="#161b22"/>
<polygon points="135.05,59.95 135.05,58.95 146.46,62.66 146.46,63.66" fill="#13171d"/>
<polygon points="146.46,63.66 146.46,62.66 157.88,58.95 157.88,59.95" fill="#101319"/>
<polygon points="173.09,55.24 184.50,58.95 173.09,62.66 161.68,58.95" fill="#161b22"/>
<polygon points="161.68,59.95 161.68,58.95 173.09,62.66 173.09,63.66" fill="#13171d"/>
<polygon points="173.09,63.66 173.09,62.66 184.50,58.95 184.50,59.95" fill="#101319"/>
<polygon points="93.20,52.24 104.62,55.95 93.20,59.66 81.79,55.95" fill="#0e4429"/>
<polygon points="81.79,59.95 81.79,55.95 93.20,59.66 93.20,63.66" fill="#0c3b24"/>
<polygon points="93.20,63.66 93.20,59.66 104.62,55.95 104.62,59.95" fill="#0a321e"/>
<polygon points="119.83,52.24 131.25,55.95 119.83,59.66 108.42,55.95" fill="#0e4429"/>
<polygon points="108.42,59.95 108.42,55.95 119.83,59.66 119.83,63.66" fill="#0c3b24"/>
<polygon points="119.83,63.66 119.83,59.66 131.25,55.95 131.25,59.95" fill="#0a321e"/>
<polygon points="66.57,46.24 77.99,49.95 66.57,53.66 55.16,49.95" fill="#26a641"/>
<polygon points="55.16,59.95 55.16,49.95 66.57,53.66 66.57,63.66" fill="#219239"/>
<polygon points="66.57,63.66 66.57,53.66 77.99,49.95 77.99,59.95" fill="#1c7a30"/>
<polygon points="26.63,59.57 38.04,63.28 26.63,66.98 15.22,63.28" fill="#161b22"/>
<polygon points="15.22,64.28 15.22,63.28 26.63,66.98 26.63,67.98" fill="#13171d"/>
<polygon points="26.63,67.98 26.63,66.98 38.04,63.28 38.04,64.28" fill="#101319"/>
<polygon points="79.89,59.57 91.30,63.28 79.89,66.98 68.48,63.28" fill="#161b22"/>
<polygon points="68.48,64.28 68.48,63.28 79.89,66.98 79.89,67.98" fill="#13171d"/>
<polygon points="79.89,67.98 79.89,66.98 91.30,63.28 91.30,64.28" fill="#101319"/>
<polygon points="133.15,59.57 144.56,63.28 133.15,66.98 121.74,63.28" fill="#161b22"/>
<polygon points="121.74,64.28 121.74,63.28 133.15,66.98 133.15,67.98" fill="#13171d"/>
<polygon points="133.15,67.98 133.15,66.98 144.56,63.28 144.56,64.28" fill="#101319"/>
<polygon points="186.41,59.57 197.82,63.28 186.41,66.98 174.99,63.28" fill="#161b22"/>
<polygon points="174.99,64.28 174.99,63.28 186.41,66.98 186.41,67.98" fill="#13171d"/>
<polygon points="186.41,67.98 186.41,66.98 197.82,63.28 197.82,64.28" fill="#101319"/>
<polygon points="53.26,56.57 64.67,60.28 53.26,63.98 41.85,60.28" fill="#0e4429"/>
<polygon points="41.85,64.28 41.85,60.28 53.26,63.98 53.26,67.98" fill="#0c3b24"/>
<polygon points="53.26,67.98 53.26,63.98 64.67,60.28 64.67,64.28" fill="#0a321e"/>
<polygon points="159.78,56.57 171.19,60.28 159.78,63.98 148.36,60.28" fill="#0e4429"/>
<polygon points="148.36,64.28 148.36,60.28 159.78,63.98 159.78,67.98" fill="#0c3b24"/>
<polygon points="159.78,67.98 159.78,63.98 171.19,60.28 171.19,64.28" fill="#0a321e"/>
<polygon points="106.52,53.57 117.93,57.28 106.52,60.98 95.11,57.28" fill="#006d32"/>
<polygon points="95.11,64.28 95.11,57.28 106.52,60.98 106.52,67.98" fill="#005f2c"/>
<polygon points="106.52,67.98 106.52,60.98 117.93,57.28 117.93,64.28" fill="#005025"/>
<polygon points="39.94,63.89 51.36,67.60 39.94,71.31 28.53,67.60" fill="#161b22"/>
<polygon points="28.53,68.60 28.53,67.60 39.94,71.31 39.94,72.31" fill="#13171d"/>
<polygon points="39.94,72.31 39.94,71.31 51.36,67.60 51.36,68.60" fill="#101319"/>
<polygon points="66.57,63.89 77.99,67.60 66.57,71.31 55.16,67.60" fill="#161b22"/>
<polygon points="55.16,68.60 55.16,67.60 66.57,71.31 66.57,72.31" fill="#13171d"/>
<polygon points="66.57,72.31 66.57,71.31 77.99,67.60 77.99,68.60" fill="#101319"/>
<polygon points="173.09,63.89 184.50,67.60 173.09,71.31 161.68,67.60" fill="#161b22"/>
<polygon points="161.68,68.60 161.68,67.60 173.09,71.31 173.09,72.31" fill="#13171d"/>
<polygon points="173.09,72.31 173.09,71.31 184.50,67.60 184.50,68.60" fill="#101319"/>
<polygon points="199.72,63.89 211.13,67.60 199.72,71.31 188.31,67.60" fill="#161b22"/>
<polygon points="188.31,68.60 188.31,67.60 199.72,71.31 199.72,72.31" fill="#13171d"/>
<polygon points="199.72,72.31 199.72,71.31 211.13,67.60 211.13,68.60" fill="#101319"/>
<polygon points="93.20,60.89 104.62,64.60 93.20,68.31 81.79,64.60" fill="#0e4429"/>
<polygon points="81.79,68.60 81.79,64.60 93.20,68.31 93.20,72.31" fill="#0c3b24"/>
<polygon points="93.20,72.31 93.20,68.31 104.62,64.60 104.62,68.60" fill="#0a321e"/>
<polygon points="119.83,60.89 131.25,64.60 119.83,68.31 108.42,64.60" fill="#0e4429"/>
<polygon points="108.42,68.60 108.42,64.60 119.83,68.31 119.83,72.31" fill="#0c3b24"/>
<polygon points="119.83,72.31 119.83,68.31 131.25,64.60 131.25,68.60" fill="#0a321e"/>
<polygon points="146.46,60.89 157.88,64.60 146.46,68.31 135.05,64.60" fill="#0e4429"/>
<polygon points="135.05,68.60 135.05,64.60 146.46,68.31 146.46,72.31" fill="#0c3b24"/>
<polygon points="146.46,72.31 146.46,68.31 157.88,64.60 157.88,68.60" fill="#0a321e"/>
<polygon points="53.26,68.22 64.67,71.93 53.26,75.64 41.85,71.93" fill="#161b22"/>
<polygon points="41.85,72.93 41.85,71.93 53.26,75.64 53.26,76.64" fill="#13171d"/>
<polygon points="53.26,76.64 53.26,75.64 64.67,71.93 64.67,72.93" fill="#101319"/>
<polygon points="106.52,68.22 117.93,71.93 106.52,75.64 95.11,71.93" fill="#161b22"/>
<polygon points="95.11,72.93 95.11,71.93 106.52,75.64 106.52,76.64" fill="#13171d"/>
<polygon points="106.52,76.64 106.52,75.64 117.93,71.93 117.93,72.93" fill="#101319"/>
<polygon points="133.15,68.22 144.56,71.93 133.15,75.64 121.74,71.93" fill="#161b22"/>
<polygon points="121.74,72.93 121.74,71.93 133.15,75.64 133.15,76.64" fill="#13171d"/>
<polygon points="133.15,76.64 133.15,75.64 144.56,71.93 144.56,72.93" fill="#101319"/>
<polygon points="159.78,68.22 171.19,71.93 159.78,75.64 148.36,71.93" fill="#161b22"/>
<polygon points="148.36,72.93 148.36,71.93 159.78,75.64 159.78,76.64" fill="#13171d"/>
<polygon points="159.78,76.64 159.78,75.64 171.19,71.93 171.19,72.93" fill="#101319"/>
<polygon points="186.41,68.22 197.82,71.93 186.41,75.64 174.99,71.93" fill="#161b22"/>
<polygon points="174.99,72.93 174.99,71.93 186.41,75.64 186.41,76.64" fill="#13171d"/>
<polygon points="186.41,76.64 186.41,75.64 197.82,71.93 197.82,72.93" fill="#101319"/>
<polygon points="213.04,68.22 224.45,71.93 213.04,75.64 201.62,71.93" fill="#161b22"/>
<polygon points="201.62,72.93 201.62,71.93 213.04,75.64 213.04,76.64" fill="#13171d"/>
<polygon points="213.04,76.64 213.04,75.64 224.45,71.93 224.45,72.93" fill="#101319"/>
<polygon points="79.89,65.22 91.30,68.93 79.89,72.64 68.48,68.93" fill="#0e4429"/>
<polygon points="68.48,72.93 68.48,68.93 79.89,72.64 79.89,76.64" fill="#0c3b24"/>
<polygon points="79.89,76.64 79.89,72.64 91.30,68.93 91.30,72.93" fill="#0a321e"/>
<polygon points="66.57,72.55 77.99,76.25 66.57,79.96 55.16,76.25" fill="#161b22"/>
<polygon points="55.16,77.25 55.16,76.25 66.57,79.96 66.57,80.96" fill="#13171d"/>
<polygon points="66.57,80.96 66.57,79.96 77.99,76.25 77.99,77.25" fill="#101319"/>
<polygon points="93.20,72.55 104.62,76.25 93.20,79.96 81.79,76.25" fill="#161b22"/>
<polygon points="81.79,77.25 81.79,76.25 93.20,79.96 93.20,80.96" fill="#13171d"/>
<polygon points="93.20,80.96 93.20,79.96 104.62,76.25 104.62,77.25" fill="#101319"/>
<polygon points="119.83,72.55 131.25,76.25 119.83,79.96 108.42,76.25" fill="#161b22"/>
<polygon points="108.42,77.25 108.42,76.25 119.83,79.96 119.83,80.96" fill="#13171d"/>
<polygon points="119.83,80.96 119.83,79.96 131.25,76.25 131.25,77.25" fill="#101319"/>
<polygon points="146.46,72.55 157.88,76.25 146.46,79.96 135.05,76.25" fill="#161b22"/>
<polygon points="135.05,77.25 135.05,76.25 146.46,79.96 146.46,80.96" fill="#13171d"/>
<polygon points="146.46,80.96 146.46,79.96 157.88,76.25 157.88,77.25" fill="#101319"/>
<polygon points="173.09,72.55 184.50,76.25 173.09,79.96 161.68,76.25" fill="#161b22"/>
<polygon points="161.68,77.25 161.68,76.25 173.09,79.96 173.09,80.96" fill="#13171d"/>
<polygon points="173.09,80.96 173.09,79.96 184.50,76.25 184.50,77.25" fill="#101319"/>
<polygon points="199.72,72.55 211.13,76.25 199.72,79.96 188.31,76.25" fill="#161b22"/>
<polygon points="188.31,77.25 188.31,76.25 199.72,79.96 199.72,80.96" fill="#13171d"/>
<polygon points="199.72,80.96 199.72,79.96 211.13,76.25 211.13,77.25" fill="#101319"/>
<polygon points="226.35,72.55 237.76,76.25 226.35,79.96 214.94,76.25" fill="#161b22"/>
<polygon points="214.94,77.25 214.94,76.25 226.35,79.96 226.35,80.96" fill="#13171d"/>
<polygon points="226.35,80.96 226.35,79.96 237.76,76.25 237.76,77.25" fill="#101319"/>
<polygon points="79.89,76.87 91.30,80.58 79.89,84.29 68.48,80.58" fill="#161b22"/>
<polygon points="68.48,81.58 68.48,80.58 79.89,84.29 79.89,85.29" fill="#13171d"/>
<polygon points="79.89,85.29 79.89,84.29 91.30,80.58 91.30,81.58" fill="#101319"/>
<polygon points="106.52,76.87 117.93,80.58 106.52,84.29 95.11,80.58" fill="#161b22"/>
<polygon points="95.11,81.58 95.11,80.58 106.52,84.29 106.52,85.29" fill="#13171d"/>
<polygon points="106.52,85.29 106.52,84.29 117.93,80.58 117.93,81.58" fill="#101319"/>
<polygon points="133.15,76.87 144.56,80.58 133.15,84.29 121.74,80.58" fill="#161b22"/>
<polygon points="121.74,81.58 121.74,80.58 133.15,84.29 133.15,85.29" fill="#13171d"/>
<polygon points="133.15,85.29 133.15,84.29 144.56,80.58 144.56,81.58" fill="#101319"/>
<polygon points="159.78,76.87 171.19,80.58 159.78,84.29 148.36,80.58" fill="#161b22"/>
<polygon points="148.36,81.58 148.36,80.58 159.78,84.29 159.78,85.29" fill="#13171d"/>
<polygon points="159.78,85.29 159.78,84.29 171.19,80.58 171.19,81.58" fill="#101319"/>
<polygon points="186.41,76.87 197.82,80.58 186.41,84.29 174.99,80.58" fill="#161b22"/>
<polygon points="174.99,81.58 174.99,80.58 186.41,84.29 186.41,85.29" fill="#13171d"/>
<polygon points="186.41,85.29 186.41,84.29 197.82,80.58 197.82,81.58" fill="#101319"/>
<polygon points="213.04,76.87 224.45,80.58 213.04,84.29 201.62,80.58" fill="#161b22"/>
<polygon points="201.62,81.58 201.62,80.58 213.04,84.29 213.04,85.29" fill="#13171d"/>
<polygon points="213.04,85.29 213.04,84.29 224.45,80.58 224.45,81.58" fill="#101319"/>
<polygon points="239.67,76.87 251.08,80.58 239.67,84.29 228.25,80.58" fill="#161b22"/>
<polygon points="228.25,81.58 228.25,80.58 239.67,84.29 239.67,85.29" fill="#13171d"/>
<polygon points="239.67,85.29 239.67,84.29 251.08,80.58 251.08,81.58" fill="#101319"/>
<polygon points="93.20,81.20 104.62,84.91 93.20,88.61 81.79,84.91" fill="#161b22"/>
<polygon points="81.79,85.91 81.79,84.91 93.20,88.61 93.20,89.61" fill="#13171d"/>
<polygon points="93.20,89.61 93.20,88.61 104.62,84.91 104.62,85.91" fill="#101319"/>
<polygon points="119.83,81.20 131.25,84.91 119.83,88.61 108.42,84.91" fill="#161b22"/>
<polygon points="108.42,85.91 108.42,84.91 119.83,88.61 119.83,89.61" fill="#13171d"/>
<polygon points="119.83,89.61 119.83,88.61 131.25,84.91 131.25,85.91" fill="#101319"/>
<polygon points="173.09,81.20 184.50,84.91 173.09,88.61 161.68,84.91" fill="#161b22"/>
<polygon points="161.68,85.91 161.68,84.91 173.09,88.61 173.09,89.61" fill="#13171d"/>
<polygon points="173.09,89.61 173.09,88.61 184.50,84.91 184.50,85.91" fill="#101319"/>
<polygon points="199.72,81.20 211.13,84.91 199.72,88.61 188.31,84.91" fill="#161b22"/>
<polygon points="188.31,85.91 188.31,84.91 199.72,88.61 199.72,89.61" fill="#13171d"/>
<polygon points="199.72,89.61 199.72,88.61 211.13,84.91 211.13,85.91" fill="#101319"/>
<polygon points="226.35,81.20 237.76,84.91 226.35,88.61 214.94,84.91" fill="#161b22"/>
<polygon points="214.94,85.91 214.94,84.91 226.35,88.61 226.35,89.61" fill="#13171d"/>
<polygon points="226.35,89.61 226.35,88.61 237.76,84.91 237.76,85.91" fill="#101319"/>
<polygon points="252.98,81.20 264.39,84.91 252.98,88.61 241.57,84.91" fill="#161b22"/>
<polygon points="241.57,85.91 241.57,84.91 252.98,88.61 252.98,89.61" fill="#13171d"/>
<polygon points="252.98,89.61 252.98,88.61 264.39,84.91 264.39,85.91" fill="#101319"/>
<polygon points="146.46,78.20 157.88,81.91 146.46,85.61 135.05,81.91" fill="#0e4429"/>
<polygon points="135.05,85.91 135.05,81.91 146.46,85.61 146.46,89.61" fill="#0c3b24"/>
<polygon points="146.46,89.61 146.46,85.61 157.88,81.91 157.88,85.91" fill="#0a321e"/>
<polygon points="106.52,85.52 117.93,89.23 106.52,92.94 95.11,89.23" fill="#161b22"/>
<polygon points="95.11,90.23 95.11,89.23 106.52,92.94 106.52,93.94" fill="#13171d"/>
<polygon points="106.52,93.94 106.52,92.94 117.93,89.23 117.93,90.23" fill="#101319"/>
<polygon points="133.15,85.52 144.56,89.23 133.15,92.94 121.74,89.23" fill="#161b22"/>
<polygon points="121.74,90.23 121.74,89.23 133.15,92.94 133.15,93.94" fill="#13171d"/>
<polygon points="133.15,93.94 133.15,92.94 144.56,89.23 144.56,90.23" fill="#101319"/>
<polygon points="186.41,85.52 197.82,89.23 186.41,92.94 174.99,89.23" fill="#161b22"/>
<polygon points="174.99,90.23 174.99,89.23 186.41,92.94 186.41,93.94" fill="#13171d"/>
<polygon points="186.41,93.94 186.41,92.94 197.82,89.23 197.82,90.23" fill="#101319"/>
<polygon points="213.04,85.52 224.45,89.23 213.04,92.94 201.62,89.23" fill="#161b22"/>
<polygon points="201.62,90.23 201.62,89.23 213.04,92.94 213.04,93.94" fill="#13171d"/>
<polygon points="213.04,93.94 213.04,92.94 224.45,89.23 224.45,90.23" fill="#101319"/>
<polygon points="239.67,85.52 251.08,89.23 239.67,92.94 228.25,89.23" fill="#161b22"/>
<polygon points="228.25,90.23 228.25,89.23 239.67,92.94 239.67,93.94" fill="#13171d"/>
<polygon points="239.67,93.94 239.67,92.94 251.08,89.23 251.08,90.23" fill="#101319"/>
<polygon points="266.30,85.52 277.71,89.23 266.30,92.94 254.88,89.23" fill="#161b22"/>
<polygon points="254.88,90.23 254.88,89.23 266.30,92.94 266.30,93.94" fill="#13171d"/>
<polygon points="266.30,93.94 266.30,92.94 277.71,89.23 277.71,90.23" fill="#101319"/>
<polygon points="159.78,82.52 171.19,86.23 159.78,89.94 148.36,86.23" fill="#0e4429"/>
<polygon points="148.36,90.23 148.36,86.23 159.78,89.94 159.78,93.94" fill="#0c3b24"/>
<polygon points="159.78,93.94 159.78,89.94 171.19,86.23 171.19,90.23" fill="#0a321e"/>
<polygon points="119.83,89.85 131.25,93.56 119.83,97.27 108.42,93.56" fill="#161b22"/>
<polygon points="108.42,94.56 108.42,93.56 119.83,97.27 119.83,98.27" fill="#13171d"/>
<polygon points="119.83,98.27 119.83,97.27 131.25,93.56 131.25,94.56" fill="#101319"/>
<polygon points="146.46,89.85 157.88,93.56 146.46,97.27 135.05,93.56" fill="#161b22"/>
<polygon points="135.05,94.56 135.05,93.56 146.46,97.27 146.46,98.27" fill="#13171d"/>
<polygon points="146.46,98.27 146.46,97.27 157.88,93.56 157.88,94.56" fill="#101319"/>
<polygon points="173.09,89.85 184.50,93.56 173.09,97.27 161.68,93.56" fill="#161b22"/>
<polygon points="161.68,94.56 161.68,93.56 173.09,97.27 173.09,98.27" fill="#13171d"/>
<polygon points="173.09,98.27 173.09,97.27 184.50,93.56 184.50,94.56" fill="#101319"/>
<polygon points="199.72,89.85 211.13,93.56 199.72,97.27 188.31,93.56" fill="#161b22"/>
<polygon points="188.31,94.56 188.31,93.56 199.72,97.27 199.72,98.27" fill="#13171d"/>
<polygon points="199.72,98.27 199.72,97.27 211.13,93.56 211.13,94.56" fill="#101319"/>
<polygon points="279.61,89.85 291.02,93.56 279.61,97.27 268.20,93.56" fill="#161b22"/>
<polygon points="268.20,94.56 268.20,93.56 279.61,97.27 279.61,98.27" fill="#13171d"/>
<polygon points="279.61,98.27 279.61,97.27 291.02,93.56 291.02,94.56" fill="#101319"/>
<polygon points="226.35,86.85 237.76,90.56 226.35,94.27 214.94,90.56" fill="#0e4429"/>
<polygon points="214.94,94.56 214.94,90.56 226.35,94.27 226.35,98.27" fill="#0c3b24"/>
<polygon points="226.35,98.27 226.35,94.27 237.76,90.56 237.76,94.56" fill="#0a321e"/>
<polygon points="252.98,86.85 264.39,90.56 252.98,94.27 241.57,90.56" fill="#0e4429"/>
<polygon points="241.57,94.56 241.57,90.56 252.98,94.27 252.98,98.27" fill="#0c3b24"/>
<polygon points="252.98,98.27 252.98,94.27 264.39,90.56 264.39,94.56" fill="#0a321e"/>
<polygon points="133.15,94.18 144.56,97.89 133.15,101.59 121.74,97.89" fill="#161b22"/>
<polygon points="121.74,98.89 121.74,97.89 133.15,101.59 133.15,102.59" fill="#13171d"/>
<polygon points="133.15,102.59 133.15,101.59 144.56,97.89 144.56,98.89" fill="#101319"/>
<polygon points="159.78,94.18 171.19,97.89 159.78,101.59 148.36,97.89" fill="#161b22"/>
<polygon points="148.36,98.89 148.36,97.89 159.78,101.59 159.78,102.59" fill="#13171d"/>
<polygon points="159.78,102.59 159.78,101.59 171.19,97.89 171.19,98.89" fill="#101319"/>
<polygon points="186.41,94.18 197.82,97.89 186.41,101.59 174.99,97.89" fill="#161b22"/>
<polygon points="174.99,98.89 174.99,97.89 186.41,101.59 186.41,102.59" fill="#13171d"/>
<polygon points="186.41,102.59 186.41,101.59 197.82,97.89 197.82,98.89" fill="#101319"/>
<polygon points="213.04,94.18 224.45,97.89 213.04,101.59 201.62,97.89" fill="#161b22"/>
<polygon points="201.62,98.89 201.62,97.89 213.04,101.59 213.04,102.59" fill="#13171d"/>
<polygon points="213.04,102.59 213.04,101.59 224.45,97.89 224.45,98.89" fill="#101319"/>
<polygon points="292.93,94.18 304.34,97.89 292.93,101.59 281.51,97.89" fill="#161b22"/>
<polygon points="281.51,98.89 281.51,97.89 292.93,101.59 292.93,102.59" fill="#13171d"/>
<polygon points="292.93,102.59 292.93,101.59 304.34,97.89 304.34,98.89" fill="#101319"/>
<polygon points="239.67,91.18 251.08,94.89 239.67,98.59 228.25,94.89" fill="#0e4429"/>
<polygon points="228.25,98.89 228.25,94.89 239.67,98.59 239.67,102.59" fill="#0c3b24"/>
<polygon points="239.67,102.59 239.67,98.59 251.08,94.89 251.08,98.89" fill="#0a321e"/>
<polygon points="266.30,91.18 277.71,94.89 266.30,98.59 254.88,94.89" fill="#0e4429"/>
<polygon points="254.88,98.89 254.88,94.89 266.30,98.59 266.30,102.59" fill="#0c3b24"/>
<polygon points="266.30,102.59 266.30,98.59 277.71,94.89 277.71,98.89" fill="#0a321e"/>
<polygon points="146.46,98.50 157.88,102.21 146.46,105.92 135.05,102.21" fill="#161b22"/>
<polygon points="135.05,103.21 135.05,102.21 146.46,105.92 146.46,106.92" fill="#13171d"/>
<polygon points="146.46,106.92 146.46,105.92 157.88,102.21 157.88,103.21" fill="#101319"/>
<polygon points="173.09,98.50 184.50,102.21 173.09,105.92 161.68,102.21" fill="#161b22"/>
<polygon points="161.68,103.21 161.68,102.21 173.09,105.92 173.09,106.92" fill="#13171d"/>
<polygon points="173.09,106.92 173.09,105.92 184.50,102.21 184.50,103.21" fill="#101319"/>
<polygon points="199.72,98.50 211.13,102.21 199.72,105.92 188.31,102.21" fill="#161b22"/>
<polygon points="188.31,103.21 188.31,102.21 199.72,105.92 199.72,106.92" fill="#13171d"/>
<polygon points="199.72,106.92 199.72,105.92 211.13,102.21 211.13,103.21" fill="#101319"/>
<polygon points="226.35,95.50 237.76,99.21 226.35,102.92 214.94,99.21" fill="#0e4429"/>
<polygon points="214.94,103.21 214.94,99.21 226.35,102.92 226.35,106.92" fill="#0c3b24"/>
<polygon points="226.35,106.92 226.35,102.92 237.76,99.21 237.76,103.21" fill="#0a321e"/>
<polygon points="252.98,95.50 264.39,99.21 252.98,102.92 241.57,99.21" fill="#0e4429"/>
<polygon points="241.57,103.21 241.57,99.21 252.98,102.92 252.98,106.92" fill="#0c3b24"/>
<polygon points="252.98,106.92 252.98,102.92 264.39,99.21 264.39,103.21" fill="#0a321e"/>
<polygon points="279.61,95.50 291.02,99.21 279.61,102.92 268.20,99.21" fill="#0e4429"/>
<polygon points="268.20,103.21 268.20,99.21 279.61,102.92 279.61,106.92" fill="#0c3b24"/>
<polygon points="279.61,106.92 279.61,102.92 291.02,99.21 291.02,103.21" fill="#0a321e"/>
<polygon points="306.24,95.50 317.65,99.21 306.24,102.92 294.83,99.21" fill="#0e4429"/>
<polygon points="294.83,103.21 294.83,99.21 306.24,102.92 306.24,106.92" fill="#0c3b24"/>
<polygon points="306.24,106.92 306.24,102.92 317.65,99.21 317.65,103.21" fill="#0a321e"/>
<polygon points="159.78,102.83 171.19,106.54 159.78,110.25 148.36,106.54" fill="#161b22"/>
<polygon points="148.36,107.54 148.36,106.54 159.78,110.25 159.78,111.25" fill="#13171d"/>
<polygon points="159.78,111.25 159.78,110.25 171.19,106.54 171.19,107.54" fill="#101319"/>
<polygon points="186.41,102.83 197.82,106.54 186.41,110.25 174.99,106.54" fill="#161b22"/>
<polygon points="174.99,107.54 174.99,106.54 186.41,110.25 186.41,111.25" fill="#13171d"/>
<polygon points="186.41,111.25 186.41,110.25 197.82,106.54 197.82,107.54" fill="#101319"/>
<polygon points="213.04,102.83 224.45,106.54 213.04,110.25 201.62,106.54" fill="#161b22"/>
<polygon points="201.62,107.54 201.62,106.54 213.04,110.25 213.04,111.25" fill="#13171d"/>
<polygon points="213.04,111.25 213.04,110.25 224.45,106.54 224.45,107.54" fill="#101319"/>
<polygon points="319.55,102.83 330.97,106.54 319.55,110.25 308.14,106.54" fill="#161b22"/>
<polygon points="308.14,107.54 308.14,106.54 319.55,110.25 319.55,111.25" fill="#13171d"/>
<polygon points="319.55,111.25 319.55,110.25 330.97,106.54 330.97,107.54" fill="#101319"/>
<polygon points="239.67,99.83 251.08,103.54 239.67,107.25 228.25,103.54" fill="#0e4429"/>
<polygon points="228.25,107.54 228.25,103.54 239.67,107.25 239.67,111.25" fill="#0c3b24"/>
<polygon points="239.67,111.25 239.67,107.25 251.08,103.54 251.08,107.54" fill="#0a321e"/>
<polygon points="266.30,99.83 277.71,103.54 266.30,107.25 254.88,103.54" fill="#0e4429"/>
<polygon points="254.88,107.54 254.88,103.54 266.30,107.25 266.30,111.25" fill="#0c3b24"/>
<polygon points="266.30,111.25 266.30,107.25 277.71,103.54 277.71,107.54" fill="#0a321e"/>
<polygon points="292.93,99.83 304.34,103.54 292.93,107.25 281.51,103.54" fill="#0e4429"/>
<polygon points="281.51,107.54 281.51,103.54 292.93,107.25 292.93,111.25" fill="#0c3b24"/>
<polygon points="292.93,111.25 292.93,107.25 304.34,103.54 304.34,107.54" fill="#0a321e"/>
<polygon points="173.09,107.16 184.50,110.86 173.09,114.57 161.68,110.86" fill="#161b22"/>
<polygon points="161.68,111.86 161.68,110.86 173.09,114.57 173.09,115.57" fill="#13171d"/>
<polygon points="173.09,115.57 173.09,114.57 184.50,110.86 184.50,111.86" fill="#101319"/>
<polygon points="199.72,107.16 211.13,110.86 199.72,114.57 188.31,110.86" fill="#161b22"/>
<polygon points="188.31,111.86 188.31,110.86 199.72,114.57 199.72,115.57" fill="#13171d"/>
<polygon points="199.72,115.57 199.72,114.57 211.13,110.86 211.13,111.86" fill="#101319"/>
<polygon points="306.24,107.16 317.65,110.86 306.24,114.57 294.83,110.86" fill="#161b22"/>
<polygon points="294.83,111.86 294.83,110.86 306.24,114.57 306.24,115.57" fill="#13171d"/>
<polygon points="306.24,115.57 306.24,114.57 317.65,110.86 317.65,111.86" fill="#101319"/>
<polygon points="226.35,104.16 237.76,107.86 226.35,111.57 214.94,107.86" fill="#0e4429"/>
<polygon points="214.94,111.86 214.94,107.86 226.35,111.57 226.35,115.57" fill="#0c3b24"/>
<polygon points="226.35,115.57 226.35,111.57 237.76,107.86 237.76,111.86" fill="#0a321e"/>
<polygon points="252.98,104.16 264.39,107.86 252.98,111.57 241.57,107.86" fill="#0e4429"/>
<polygon points="241.57,111.86 241.57,107.86 252.98,111.57 252.98,115.57" fill="#0c3b24"/>
<polygon points="252.98,115.57 252.98,111.57 264.39,107.86 264.39,111.86" fill="#0a321e"/>
<polygon points="279.61,104.16 291.02,107.86 279.61,111.57 268.20,107.86" fill="#0e4429"/>
<polygon points="268.20,111.86 268.20,107.86 279.61,111.57 279.61,115.57" fill="#0c3b24"/>
<polygon points="279.61,115.57 279.61,111.57 291.02,107.86 291.02,111.86" fill="#0a321e"/>
<polygon points="332.87,104.16 344.28,107.86 332.87,111.57 321.46,107.86" fill="#0e4429"/>
<polygon points="321.46,111.86 321.46,107.86 332.87,111.57 332.87,115.57" fill="#0c3b24"/>
<polygon points="332.87,115.57 332.87,111.57 344.28,107.86 344.28,111.86" fill="#0a321e"/>
<polygon points="186.41,111.48 197.82,115.19 186.41,118.90 174.99,115.19" fill="#161b22"/>
<polygon points="174.99,116.19 174.99,115.19 186.41,118.90 186.41,119.90" fill="#13171d"/>
<polygon points="186.41,119.90 186.41,118.90 197.82,115.19 197.82,116.19" fill="#101319"/>
<polygon points="239.67,111.48 251.08,115.19 239.67,118.90 228.25,115.19" fill="#161b22"/>
<polygon points="228.25,116.19 228.25,115.19 239.67,118.90 239.67,119.90" fill="#13171d"/>
<polygon points="239.67,119.90 239.67,118.90 251.08,115.19 251.08,116.19" fill="#101319"/>
<polygon points="292.93,111.48 304.34,115.19 292.93,118.90 281.51,115.19" fill="#161b22"/>
<polygon points="281.51,116.19 281.51,115.19 292.93,118.90 292.93,119.90" fill="#13171d"/>
<polygon points="292.93,119.90 292.93,118.90 304.34,115.19 304.34,116.19" fill="#101319"/>
<polygon points="213.04,108.48 224.45,112.19 213.04,115.90 201.62,112.19" fill="#0e4429"/>
<polygon points="201.62,116.19 201.62,112.19 213.04,115.90 213.04,119.90" fill="#0c3b24"/>
<polygon points="213.04,119.90 213.04,115.90 224.45,112.19 224.45,116.19" fill="#0a321e"/>
<polygon points="266.30,108.48 277.71,112.19 266.30,115.90 254.88,112.19" fill="#0e4429"/>
<polygon points="254.88,116.19 254.88,112.19 266.30,115.90 266.30,119.90" fill="#0c3b24"/>
<polygon points="266.30,119.90 266.30,115.90 277.71,112.19 277.71,116.19" fill="#0a321e"/>
<polygon points="319.55,108.48 330.97,112.19 319.55,115.90 308.14,112.19" fill="#0e4429"/>
<polygon points="308.14,116.19 308.14,112.19 319.55,115.90 319.55,119.90" fill="#0c3b24"/>
<polygon points="319.55,119.90 319.55,115.90 330.97,112.19 330.97,116.19" fill="#0a321e"/>
<polygon points="346.18,108.48 357.60,112.19 346.18,115.90 334.77,112.19" fill="#0e4429"/>
<polygon points="334.77,116.19 334.77,112.19 346.18,115.90 346.18,119.90" fill="#0c3b24"/>
<polygon points="346.18,119.90 346.18,115.90 357.60,112.19 357.60,116.19" fill="#0a321e"/>
<polygon points="199.72,115.81 211.13,119.52 199.72,123.22 188.31,119.52" fill="#161b22"/>
<polygon points="188.31,120.52 188.31,119.52 199.72,123.22 199.72,124.22" fill="#13171d"/>
<polygon points="199.72,124.22 199.72,123.22 211.13,119.52 211.13,120.52" fill="#101319"/>
<polygon points="252.98,115.81 264.39,119.52 252.98,123.22 241.57,119.52" fill="#161b22"/>
<polygon points="241.57,120.52 241.57,119.52 252.98,123.22 252.98,124.22" fill="#13171d"/>
<polygon points="252.98,124.22 252.98,123.22 264.39,119.52 264.39,120.52" fill="#101319"/>
<polygon points="279.61,115.81 291.02,119.52 279.61,123.22 268.20,119.52" fill="#161b22"/>
<polygon points="268.20,120.52 268.20,119.52 279.61,123.22 279.61,124.22" fill="#13171d"/>
<polygon points="279.61,124.22 279.61,123.22 291.02,119.52 291.02,120.52" fill="#101319"/>
<polygon points="359.50,115.81 370.91,119.52 359.50,123.22 348.09,119.52" fill="#161b22"/>
<polygon points="348.09,120.52 348.09,119.52 359.50,123.22 359.50,124.22" fill="#13171d"/>
<polygon points="359.50,124.22 359.50,123.22 370.91,119.52 370.91,120.52" fill="#101319"/>
<polygon points="226.35,112.81 237.76,116.52 226.35,120.22 214.94,116.52" fill="#0e4429"/>
<polygon points="214.94,120.52 214.94,116.52 226.35,120.22 226.35,124.22" fill="#0c3b24"/>
<polygon points="226.35,124.22 226.35,120.22 237.76,116.52 237.76,120.52" fill="#0a321e"/>
<polygon points="306.24,112.81 317.65,116.52 306.24,120.22 294.83,116.52" fill="#0e4429"/>
<polygon points="294.83,120.52 294.83,116.52 306.24,120.22 306.24,124.22" fill="#0c3b24"/>
<polygon points="306.24,124.22 306.24,120.22 317.65,116.52 317.65,120.52" fill="#0a321e"/>
<polygon points="332.87,109.81 344.28,113.52 332.87,117.22 321.46,113.52" fill="#006d32"/>
<polygon points="321.46,120.52 321.46,113.52 332.87,117.22 332.87,124.22" fill="#005f2c"/>
<polygon points="332.87,124.22 332.87,117.22 344.28,113.52 344.28,120.52" fill="#005025"/>
<polygon points="239.67,120.13 251.08,123.84 239.67,127.55 228.25,123.84" fill="#161b22"/>
<polygon points="228.25,124.84 228.25,123.84 239.67,127.55 239.67,128.55" fill="#13171d"/>
<polygon points="239.67,128.55 239.67,127.55 251.08,123.84 251.08,124.84" fill="#101319"/>
<polygon points="266.30,120.13 277.71,123.84 266.30,127.55 254.88,123.84" fill="#161b22"/>
<polygon points="254.88,124.84 254.88,123.84 266.30,127.55 266.30,128.55" fill="#13171d"/>
<polygon points="266.30,128.55 266.30,127.55 277.71,123.84 277.71,124.84" fill="#101319"/>
<polygon points="372.81,120.13 384.23,123.84 372.81,127.55 361.40,123.84" fill="#161b22"/>
<polygon points="361.40,124.84 361.40,123.84 372.81,127.55 372.81,128.55" fill="#13171d"/>
<polygon points="372.81,128.55 372.81,127.55 384.23,123.84 384.23,124.84" fill="#101319"/>
<polygon points="213.04,117.13 224.45,120.84 213.04,124.55 201.62,120.84" fill="#0e4429"/>
<polygon points="201.62,124.84 201.62,120.84 213.04,124.55 213.04,128.55" fill="#0c3b24"/>
<polygon points="213.04,128.55 213.04,124.55 224.45,120.84 224.45,124.84" fill="#0a321e"/>
<polygon points="292.93,117.13 304.34,120.84 292.93,124.55 281.51,120.84" fill="#0e4429"/>
<polygon points="281.51,124.84 281.51,120.84 292.93,124.55 292.93,128.55" fill="#0c3b24"/>
<polygon points="292.93,128.55 292.93,124.55 304.34,120.84 304.34,124.84" fill="#0a321e"/>
<polygon points="346.18,117.13 357.60,120.84 346.18,124.55 334.77,120.84" fill="#0e4429"/>
<polygon points="334.77,124.84 334.77,120.84 346.18,124.55 346.18,128.55" fill="#0c3b24"/>
<polygon points="346.18,128.55 346.18,124.55 357.60,120.84 357.60,124.84" fill="#0a321e"/>
<polygon points="319.55,114.13 330.97,117.84 319.55,121.55 308.14,117.84" fill="#006d32"/>
<polygon points="308.14,124.84 308.14,117.84 319.55,121.55 319.55,128.55" fill="#005f2c"/>
<polygon points="319.55,128.55 319.55,121.55 330.97,117.84 330.97,124.84" fill="#005025"/>
<polygon points="226.35,124.46 237.76,128.17 226.35,131.88 214.94,128.17" fill="#161b22"/>
<polygon points="214.94,129.17 214.94,128.17 226.35,131.88 226.35,132.88" fill="#13171d"/>
<polygon points="226.35,132.88 226.35,131.88 237.76,128.17 237.76,129.17" fill="#101319"/>
<polygon points="252.98,124.46 264.39,128.17 252.98,131.88 241.57,128.17" fill="#161b22"/>
<polygon points="241.57,129.17 241.57,128.17 252.98,131.88 252.98,132.88" fill="#13171d"/>
<polygon points="252.98,132.88 252.98,131.88 264.39,128.17 264.39,129.17" fill="#101319"/>
<polygon points="332.87,121.46 344.28,125.17 332.87,128.88 321.46,125.17" fill="#0e4429"/>
<polygon points="321.46,129.17 321.46,125.17 332.87,128.88 332.87,132.88" fill="#0c3b24"/>
<polygon points="332.87,132.88 332.87,128.88 344.28,125.17 344.28,129.17" fill="#0a321e"/>
<polygon points="359.50,121.46 370.91,125.17 359.50,128.88 348.09,125.17" fill="#0e4429"/>
<polygon points="348.09,129.17 348.09,125.17 359.50,128.88 359.50,132.88" fill="#0c3b24"/>
<polygon points="359.50,132.88 359.50,128.88 370.91,125.17 370.91,129.17" fill="#0a321e"/>
<polygon points="386.13,121.46 397.54,125.17 386.13,128.88 374.72,125.17" fill="#0e4429"/>
<polygon points="374.72,129.17 374.72,125.17 386.13,128.88 386.13,132.88" fill="#0c3b24"/>
<polygon points="386.13,132.88 386.13,128.88 397.54,125.17 397.54,129.17" fill="#0a321e"/>
<polygon points="306.24,118.46 317.65,122.17 306.24,125.88 294.83,122.17" fill="#006d32"/>
<polygon points="294.83,129.17 294.83,122.17 306.24,125.88 306.24,132.88" fill="#005f2c"/>
<polygon points="306.24,132.88 306.24,125.88 317.65,122.17 317.65,129.17" fill="#005025"/>
<polygon points="279.61,112.46 291.02,116.17 279.61,119.88 268.20,116.17" fill="#39d353"/>
<polygon points="268.20,129.17 268.20,116.17 279.61,119.88 279.61,132.88" fill="#32b949"/>
<polygon points="279.61,132.88 279.61,119.88 291.02,116.17 291.02,129.17" fill="#2a9c3d"/>
<polygon points="239.67,128.79 251.08,132.50 239.67,136.20 228.25,132.50" fill="#161b22"/>
<polygon points="228.25,133.50 228.25,132.50 239.67,136.20 239.67,137.20" fill="#13171d"/>
<polygon points="239.67,137.20 239.67,136.20 251.08,132.50 251.08,133.50" fill="#101319"/>
<polygon points="399.44,128.79 410.86,132.50 399.44,136.20 388.03,132.50" fill="#161b22"/>
<polygon points="388.03,133.50 388.03,132.50 399.44,136.20 399.44,137.20" fill="#13171d"/>
<polygon points="399.44,137.20 399.44,136.20 410.86,132.50 410.86,133.50" fill="#101319"/>
<polygon points="266.30,125.79 277.71,129.50 266.30,133.20 254.88,129.50" fill="#0e4429"/>
<polygon points="254.88,133.50 254.88,129.50 266.30,133.20 266.30,137.20" fill="#0c3b24"/>
<polygon points="266.30,137.20 266.30,133.20 277.71,129.50 277.71,133.50" fill="#0a321e"/>
<polygon points="292.93,125.79 304.34,129.50 292.93,133.20 281.51,129.50" fill="#0e4429"/>
<polygon points="281.51,133.50 281.51,129.50 292.93,133.20 292.93,137.20" fill="#0c3b24"/>
<polygon points="292.93,137.20 292.93,133.20 304.34,129.50 304.34,133.50" fill="#0a321e"/>
<polygon points="319.55,125.79 330.97,129.50 319.55,133.20 308.14,129.50" fill="#0e4429"/>
<polygon points="308.14,133.50 308.14,129.50 319.55,133.20 319.55,137.20" fill="#0c3b24"/>
<polygon points="319.55,137.20 319.55,133.20 330.97,129.50 330.97,133.50" fill="#0a321e"/>
<polygon points="346.18,125.79 357.60,129.50 346.18,133.20 334.77,129.50" fill="#0e4429"/>
<polygon points="334.77,133.50 334.77,129.50 346.18,133.20 346.18,137.20" fill="#0c3b24"/>
<polygon points="346.18,137.20 346.18,133.20 357.60,129.50 357.60,133.50" fill="#0a321e"/>
<polygon points="372.81,125.79 384.23,129.50 372.81,133.20 361.40,129.50" fill="#0e4429"/>
<polygon points="361.40,133.50 361.40,129.50 372.81,133.20 372.81,137.20" fill="#0c3b24"/>
<polygon points="372.81,137.20 372.81,133.20 384.23,129.50 384.23,133.50" fill="#0a321e"/>
<polygon points="279.61,133.11 291.02,136.82 279.61,140.53 268.20,136.82" fill="#161b22"/>
<polygon points="268.20,137.82 268.20,136.82 279.61,140.53 279.61,141.53" fill="#13171d"/>
<polygon points="279.61,141.53 279.61,140.53 291.02,136.82 291.02,137.82" fill="#101319"/>
<polygon points="412.76,133.11 424.17,136.82 412.76,140.53 401.35,136.82" fill="#161b22"/>
<polygon points="401.35,137.82 401.35,136.82 412.76,140.53 412.76,141.53" fill="#13171d"/>
<polygon points="412.76,141.53 412.76,140.53 424.17,136.82 424.17,137.82" fill="#101319"/>
<polygon points="252.98,130.11 264.39,133.82 252.98,137.53 241.57,133.82" fill="#0e4429"/>
<polygon points="241.57,137.82 241.57,133.82 252.98,137.53 252.98,141.53" fill="#0c3b24"/>
<polygon points="252.98,141.53 252.98,137.53 264.39,133.82 264.39,137.82" fill="#0a321e"/>
<polygon points="332.87,130.11 344.28,133.82 332.87,137.53 321.46,133.82" fill="#0e4429"/>
<polygon points="321.46,137.82 321.46,133.82 332.87,137.53 332.87,141.53" fill="#0c3b24"/>
<polygon points="332.87,141.53 332.87,137.53 344.28,133.82 344.28,137.82" fill="#0a321e"/>
<polygon points="359.50,130.11 370.91,133.82 359.50,137.53 348.09,133.82" fill="#0e4429"/>
<polygon points="348.09,137.82 348.09,133.82 359.50,137.53 359.50,141.53" fill="#0c3b24"/>
<polygon points="359.50,141.53 359.50,137.53 370.91,133.82 370.91,137.82" fill="#0a321e"/>
<polygon points="386.13,130.11 397.54,133.82 386.13,137.53 374.72,133.82" fill="#0e4429"/>
<polygon points="374.72,137.82 374.72,133.82 386.13,137.53 386.13,141.53" fill="#0c3b24"/>
<polygon points="386.13,141.53 386.13,137.53 397.54,133.82 397.54,137.82" fill="#0a321e"/>
<polygon points="306.24,121.11 317.65,124.82 306.24,128.53 294.83,124.82" fill="#39d353"/>
<polygon points="294.83,137.82 294.83,124.82 306.24,128.53 306.24,141.53" fill="#32b949"/>
<polygon points="306.24,141.53 306.24,128.53 317.65,124.82 317.65,137.82" fill="#2a9c3d"/>
<polygon points="266.30,137.44 277.71,141.15 266.30,144.86 254.88,141.15" fill="#161b22"/>
<polygon points="254.88,142.15 254.88,141.15 266.30,144.86 266.30,145.86" fill="#13171d"/>
<polygon points="266.30,145.86 266.30,144.86 277.71,141.15 277.71,142.15" fill="#101319"/>
<polygon points="292.93,137.44 304.34,141.15 292.93,144.86 281.51,141.15" fill="#161b22"/>
<polygon points="281.51,142.15 281.51,141.15 292.93,144.86 292.93,145.86" fill="#13171d"/>
<polygon points="292.93,145.86 292.93,144.86 304.34,141.15 304.34,142.15" fill="#101319"/>
<polygon points="426.07,137.44 437.49,141.15 426.07,144.86 414.66,141.15" fill="#161b22"/>
<polygon points="414.66,142.15 414.66,141.15 426.07,144.86 426.07,145.86" fill="#13171d"/>
<polygon points="426.07,145.86 426.07,144.86 437.49,141.15 437.49,142.15" fill="#101319"/>
<polygon points="319.55,134.44 330.97,138.15 319.55,141.86 308.14,138.15" fill="#0e4429"/>
<polygon points="308.14,142.15 308.14,138.15 319.55,141.86 319.55,145.86" fill="#0c3b24"/>
<polygon points="319.55,145.86 319.55,141.86 330.97,138.15 330.97,142.15" fill="#0a321e"/>
<polygon points="346.18,134.44 357.60,138.15 346.18,141.86 334.77,138.15" fill="#0e4429"/>
<polygon points="334.77,142.15 334.77,138.15 346.18,141.86 346.18,145.86" fill="#0c3b24"/>
<polygon points="346.18,145.86 346.18,141.86 357.60,138.15 357.60,142.15" fill="#0a321e"/>
<polygon points="399.44,134.44 410.86,138.15 399.44,141.86 388.03,138.15" fill="#0e4429"/>
<polygon points="388.03,142.15 388.03,138.15 399.44,141.86 399.44,145.86" fill="#0c3b24"/>
<polygon points="399.44,145.86 399.44,141.86 410.86,138.15 410.86,142.15" fill="#0a321e"/>
<polygon points="372.81,131.44 384.23,135.15 372.81,138.86 361.40,135.15" fill="#006d32"/>
<polygon points="361.40,142.15 361.40,135.15 372.81,138.86 372.81,145.86" fill="#005f2c"/>
<polygon points="372.81,145.86 372.81,138.86 384.23,135.15 384.23,142.15" fill="#005025"/>
<polygon points="279.61,141.77 291.02,145.47 279.61,149.18 268.20,145.47" fill="#161b22"/>
<polygon points="268.20,146.47 268.20,145.47 279.61,149.18 279.61,150.18" fill="#13171d"/>
<polygon points="279.61,150.18 279.61,149.18 291.02,145.47 291.02,146.47" fill="#101319"/>
<polygon points="386.13,141.77 397.54,145.47 386.13,149.18 374.72,145.47" fill="#161b22"/>
<polygon points="374.72,146.47 374.72,145.47 386.13,149.18 386.13,150.18" fill="#13171d"/>
<polygon points="386.13,150.18 386.13,149.18 397.54,145.47 397.54,146.47" fill="#101319"/>
<polygon points="412.76,141.77 424.17,145.47 412.76,149.18 401.35,145.47" fill="#161b22"/>
<polygon points="401.35,146.47 401.35,145.47 412.76,149.18 412.76,150.18" fill="#13171d"/>
<polygon points="412.76,150.18 412.76,149.18 424.17,145.47 424.17,146.47" fill="#101319"/>
<polygon points="439.39,141.77 450.80,145.47 439.39,149.18 427.98,145.47" fill="#161b22"/>
<polygon points="427.98,146.47 427.98,145.47 439.39,149.18 439.39,150.18" fill="#13171d"/>
<polygon points="439.39,150.18 439.39,149.18 450.80,145.47 450.80,146.47" fill="#101319"/>
<polygon points="306.24,138.77 317.65,142.47 306.24,146.18 294.83,142.47" fill="#0e4429"/>
<polygon points="294.83,146.47 294.83,142.47 306.24,146.18 306.24,150.18" fill="#0c3b24"/>
<polygon points="306.24,150.18 306.24,146.18 317.65,142.47 317.65,146.47" fill="#0a321e"/>
<polygon points="332.87,138.77 344.28,142.47 332.87,146.18 321.46,142.47" fill="#0e4429"/>
<polygon points="321.46,146.47 321.46,142.47 332.87,146.18 332.87,150.18" fill="#0c3b24"/>
<polygon points="332.87,150.18 332.87,146.18 344.28,142.47 344.28,146.47" fill="#0a321e"/>
<polygon points="359.50,138.77 370.91,142.47 359.50,146.18 348.09,142.47" fill="#0e4429"/>
<polygon points="348.09,146.47 348.09,142.47 359.50,146.18 359.50,150.18" fill="#0c3b24"/>
<polygon points="359.50,150.18 359.50,146.18 370.91,142.47 370.91,146.47" fill="#0a321e"/>
<polygon points="292.93,146.09 304.34,149.80 292.93,153.51 281.51,149.80" fill="#161b22"/>
<polygon points="281.51,150.80 281.51,149.80 292.93,153.51 292.93,154.51" fill="#13171d"/>
<polygon points="292.93,154.51 292.93,153.51 304.34,149.80 304.34,150.80" fill="#101319"/>
<polygon points="372.81,146.09 384.23,149.80 372.81,153.51 361.40,149.80" fill="#161b22"/>
<polygon points="361.40,150.80 361.40,149.80 372.81,153.51 372.81,154.51" fill="#13171d"/>
<polygon points="372.81,154.51 372.81,153.51 384.23,149.80 384.23,150.80" fill="#101319"/>
<polygon points="426.07,146.09 437.49,149.80 426.07,153.51 414.66,149.80" fill="#161b22"/>
<polygon points="414.66,150.80 414.66,149.80 426.07,153.51 426.07,154.51" fill="#13171d"/>
<polygon points="426.07,154.51 426.07,153.51 437.49,149.80 437.49,150.80" fill="#101319"/>
<polygon points="319.55,143.09 330.97,146.80 319.55,150.51 308.14,146.80" fill="#0e4429"/>
<polygon points="308.14,150.80 308.14,146.80 319.55,150.51 319.55,154.51" fill="#0c3b24"/>
<polygon points="319.55,154.51 319.55,150.51 330.97,146.80 330.97,150.80" fill="#0a321e"/>
<polygon points="346.18,143.09 357.60,146.80 346.18,150.51 334.77,146.80" fill="#0e4429"/>
<polygon points="334.77,150.80 334.77,146.80 346.18,150.51 346.18,154.51" fill="#0c3b24"/>
<polygon points="346.18,154.51 346.18,150.51 357.60,146.80 357.60,150.80" fill="#0a321e"/>
<polygon points="399.44,143.09 410.86,146.80 399.44,150.51 388.03,146.80" fill="#0e4429"/>
<polygon points="388.03,150.80 388.03,146.80 399.44,150.51 399.44,154.51" fill="#0c3b24"/>
<polygon points="399.44,154.51 399.44,150.51 410.86,146.80 410.86,150.80" fill="#0a321e"/>
<polygon points="452.70,143.09 464.12,146.80 452.70,150.51 441.29,146.80" fill="#0e4429"/>
<polygon points="441.29,150.80 441.29,146.80 452.70,150.51 452.70,154.51" fill="#0c3b24"/>
<polygon points="452.70,154.51 452.70,150.51 464.12,146.80 464.12,150.80" fill="#0a321e"/>
<polygon points="306.24,150.42 317.65,154.13 306.24,157.83 294.83,154.13" fill="#161b22"/>
<polygon points="294.83,155.13 294.83,154.13 306.24,157.83 306.24,158.83" fill="#13171d"/>
<polygon points="306.24,158.83 306.24,157.83 317.65,154.13 317.65,155.13" fill="#101319"/>
<polygon points="359.50,150.42 370.91,154.13 359.50,157.83 348.09,154.13" fill="#161b22"/>
<polygon points="348.09,155.13 348.09,154.13 359.50,157.83 359.50,158.83" fill="#13171d"/>
<polygon points="359.50,158.83 359.50,157.83 370.91,154.13 370.91,155.13" fill="#101319"/>
<polygon points="466.02,150.42 477.43,154.13 466.02,157.83 454.61,154.13" fill="#161b22"/>
<polygon points="454.61,155.13 454.61,154.13 466.02,157.83 466.02,158.83" fill="#13171d"/>
<polygon points="466.02,158.83 466.02,157.83 477.43,154.13 477.43,155.13" fill="#101319"/>
<polygon points="332.87,147.42 344.28,151.13 332.87,154.83 321.46,151.13" fill="#0e4429"/>
<polygon points="321.46,155.13 321.46,151.13 332.87,154.83 332.87,158.83" fill="#0c3b24"/>
<polygon points="332.87,158.83 332.87,154.83 344.28,151.13 344.28,155.13" fill="#0a321e"/>
<polygon points="386.13,147.42 397.54,151.13 386.13,154.83 374.72,151.13" fill="#0e4429"/>
<polygon points="374.72,155.13 374.72,151.13 386.13,154.83 386.13,158.83" fill="#0c3b24"/>
<polygon points="386.13,158.83 386.13,154.83 397.54,151.13 397.54,155.13" fill="#0a321e"/>
<polygon points="412.76,147.42 424.17,151.13 412.76,154.83 401.35,151.13" fill="#0e4429"/>
<polygon points="401.35,155.13 401.35,151.13 412.76,154.83 412.76,158.83" fill="#0c3b24"/>
<polygon points="412.76,158.83 412.76,154.83 424.17,151.13 424.17,155.13" fill="#0a321e"/>
<polygon points="439.39,147.42 450.80,151.13 439.39,154.83 427.98,151.13" fill="#0e4429"/>
<polygon points="427.98,155.13 427.98,151.13 439.39,154.83 439.39,158.83" fill="#0c3b24"/>
<polygon points="439.39,158.83 439.39,154.83 450.80,151.13 450.80,155.13" fill="#0a321e"/>
<polygon points="319.55,154.74 330.97,158.45 319.55,162.16 308.14,158.45" fill="#161b22"/>
<polygon points="308.14,159.45 308.14,158.45 319.55,162.16 319.55,163.16" fill="#13171d"/>
<polygon points="319.55,163.16 319.55,162.16 330.97,158.45 330.97,159.45" fill="#101319"/>
<polygon points="346.18,154.74 357.60,158.45 346.18,162.16 334.77,158.45" fill="#161b22"/>
<polygon points="334.77,159.45 334.77,158.45 346.18,162.16 346.18,163.16" fill="#13171d"/>
<polygon points="346.18,163.16 346.18,162.16 357.60,158.45 357.60,159.45" fill="#101319"/>
<polygon points="372.81,154.74 384.23,158.45 372.81,162.16 361.40,158.45" fill="#161b22"/>
<polygon points="361.40,159.45 361.40,158.45 372.81,162.16 372.81,163.16" fill="#13171d"/>
<polygon points="372.81,163.16 372.81,162.16 384.23,158.45 384.23,159.45" fill="#101319"/>
<polygon points="399.44,154.74 410.86,158.45 399.44,162.16 388.03,158.45" fill="#161b22"/>
<polygon points="388.03,159.45 388.03,158.45 399.44,162.16 399.44,163.16" fill="#13171d"/>
<polygon points="399.44,163.16 399.44,162.16 410.86,158.45 410.86,159.45" fill="#101319"/>
<polygon points="479.33,154.74 490.75,158.45 479.33,162.16 467.92,158.45" fill="#161b22"/>
<polygon points="467.92,159.45 467.92,158.45 479.33,162.16 479.33,163.16" fill="#13171d"/>
<polygon points="479.33,163.16 479.33,162.16 490.75,158.45 490.75,159.45" fill="#101319"/>
<polygon points="426.07,151.74 437.49,155.45 426.07,159.16 414.66,155.45" fill="#0e4429"/>
<polygon points="414.66,159.45 414.66,155.45 426.07,159.16 426.07,163.16" fill="#0c3b24"/>
<polygon points="426.07,163.16 426.07,159.16 437.49,155.45 437.49,159.45" fill="#0a321e"/>
<polygon points="452.70,151.74 464.12,155.45 452.70,159.16 441.29,155.45" fill="#0e4429"/>
<polygon points="441.29,159.45 441.29,155.45 452.70,159.16 452.70,163.16" fill="#0c3b24"/>
<polygon points="452.70,163.16 452.70,159.16 464.12,155.45 464.12,159.45" fill="#0a321e"/>
<polygon points="332.87,159.07 344.28,162.78 332.87,166.49 321.46,162.78" fill="#161b22"/>
<polygon points="321.46,163.78 321.46,162.78 332.87,166.49 332.87,167.49" fill="#13171d"/>
<polygon points="332.87,167.49 332.87,166.49 344.28,162.78 344.28,163.78" fill="#101319"/>
<polygon points="439.39,159.07 450.80,162.78 439.39,166.49 427.98,162.78" fill="#161b22"/>
<polygon points="427.98,163.78 427.98,162.78 439.39,166.49 439.39,167.49" fill="#13171d"/>
<polygon points="439.39,167.49 439.39,166.49 450.80,162.78 450.80,163.78" fill="#101319"/>
<polygon points="359.50,156.07 370.91,159.78 359.50,163.49 348.09,159.78" fill="#0e4429"/>
<polygon points="348.09,163.78 348.09,159.78 359.50,163.49 359.50,167.49" fill="#0c3b24"/>
<polygon points="359.50,167.49 359.50,163.49 370.91,159.78 370.91,163.78" fill="#0a321e"/>
<polygon points="386.13,156.07 397.54,159.78 386.13,163.49 374.72,159.78" fill="#0e4429"/>
<polygon points="374.72,163.78 374.72,159.78 386.13,163.49 386.13,167.49" fill="#0c3b24"/>
<polygon points="386.13,167.49 386.13,163.49 397.54,159.78 397.54,163.78" fill="#0a321e"/>
<polygon points="412.76,156.07 424.17,159.78 412.76,163.49 401.35,159.78" fill="#0e4429"/>
<polygon points="401.35,163.78 401.35,159.78 412.76,163.49 412.76,167.49" fill="#0c3b24"/>
<polygon points="412.76,167.49 412.76,163.49 424.17,159.78 424.17,163.78" fill="#0a321e"/>
<polygon points="466.02,156.07 477.43,159.78 466.02,163.49 454.61,159.78" fill="#0e4429"/>
<polygon points="454.61,163.78 454.61,159.78 466.02,163.49 466.02,167.49" fill="#0c3b24"/>
<polygon points="466.02,167.49 466.02,163.49 477.43,159.78 477.43,163.78" fill="#0a321e"/>
<polygon points="492.65,156.07 504.06,159.78 492.65,163.49 481.23,159.78" fill="#0e4429"/>
<polygon points="481.23,163.78 481.23,159.78 492.65,163.49 492.65,167.49" fill="#0c3b24"/>
<polygon points="492.65,167.49 492.65,163.49 504.06,159.78 504.06,163.78" fill="#0a321e"/>
<polygon points="346.18,163.40 357.60,167.11 346.18,170.81 334.77,167.11" fill="#161b22"/>
<polygon points="334.77,168.11 334.77,167.11 346.18,170.81 346.18,171.81" fill="#13171d"/>
<polygon points="346.18,171.81 346.18,170.81 357.60,167.11 357.60,168.11" fill="#101319"/>
<polygon points="426.07,163.40 437.49,167.11 426.07,170.81 414.66,167.11" fill="#161b22"/>
<polygon points="414.66,168.11 414.66,167.11 426.07,170.81 426.07,171.81" fill="#13171d"/>
<polygon points="426.07,171.81 426.07,170.81 437.49,167.11 437.49,168.11" fill="#101319"/>
<polygon points="452.70,163.40 464.12,167.11 452.70,170.81 441.29,167.11" fill="#161b22"/>
<polygon points="441.29,168.11 441.29,167.11 452.70,170.81 452.70,171.81" fill="#13171d"/>
<polygon points="452.70,171.81 452.70,170.81 464.12,167.11 464.12,168.11" fill="#101319"/>
<polygon points="479.33,163.40 490.75,167.11 479.33,170.81 467.92,167.11" fill="#161b22"/>
<polygon points="467.92,168.11 467.92,167.11 479.33,170.81 479.33,171.81" fill="#13171d"/>
<polygon points="479.33,171.81 479.33,170.81 490.75,167.11 490.75,168.11" fill="#101319"/>
<polygon points="505.96,163.40 517.37,167.11 505.96,170.81 494.55,167.11" fill="#161b22"/>
<polygon points="494.55,168.11 494.55,167.11 505.96,170.81 505.96,171.81" fill="#13171d"/>
<polygon points="505.96,171.81 505.96,170.81 517.37,167.11 517.37,168.11" fill="#101319"/>
<polygon points="372.81,160.40 384.23,164.11 372.81,167.81 361.40,164.11" fill="#0e4429"/>
<polygon points="361.40,168.11 361.40,164.11 372.81,167.81 372.81,171.81" fill="#0c3b24"/>
<polygon points="372.81,171.81 372.81,167.81 384.23,164.11 384.23,168.11" fill="#0a321e"/>
<polygon points="399.44,160.40 410.86,164.11 399.44,167.81 388.03,164.11" fill="#0e4429"/>
<polygon points="388.03,168.11 388.03,164.11 399.44,167.81 399.44,171.81" fill="#0c3b24"/>
<polygon points="399.44,171.81 399.44,167.81 410.86,164.11 410.86,168.11" fill="#0a321e"/>
<polygon points="359.50,167.72 370.91,171.43 359.50,175.14 348.09,171.43" fill="#161b22"/>
<polygon points="348.09,172.43 348.09,171.43 359.50,175.14 359.50,176.14" fill="#13171d"/>
<polygon points="359.50,176.14 359.50,175.14 370.91,171.43 370.91,172.43" fill="#101319"/>
<polygon points="386.13,167.72 397.54,171.43 386.13,175.14 374.72,171.43" fill="#161b22"/>
<polygon points="374.72,172.43 374.72,171.43 386.13,175.14 386.13,176.14" fill="#13171d"/>
<polygon points="386.13,176.14 386.13,175.14 397.54,171.43 397.54,172.43" fill="#101319"/>
<polygon points="412.76,167.72 424.17,171.43 412.76,175.14 401.35,171.43" fill="#161b22"/>
<polygon points="401.35,172.43 401.35,171.43 412.76,175.14 412.76,176.14" fill="#13171d"/>
<polygon points="412.76,176.14 412.76,175.14 424.17,171.43 424.17,172.43" fill="#101319"/>
<polygon points="439.39,167.72 450.80,171.43 439.39,175.14 427.98,171.43" fill="#161b22"/>
<polygon points="427.98,172.43 427.98,171.43 439.39,175.14 439.39,176.14" fill="#13171d"/>
<polygon points="439.39,176.14 439.39,175.14 450.80,171.43 450.80,172.43" fill="#101319"/>
<polygon points="519.28,167.72 530.69,171.43 519.28,175.14 507.86,171.43" fill="#161b22"/>
<polygon points="507.86,172.43 507.86,171.43 519.28,175.14 519.28,176.14" fill="#13171d"/>
<polygon points="519.28,176.14 519.28,175.14 530.69,171.43 530.69,172.43" fill="#101319"/>
<polygon points="466.02,164.72 477.43,168.43 466.02,172.14 454.61,168.43" fill="#0e4429"/>
<polygon points="454.61,172.43 454.61,168.43 466.02,172.14 466.02,176.14" fill="#0c3b24"/>
<polygon points="466.02,176.14 466.02,172.14 477.43,168.43 477.43,172.43" fill="#0a321e"/>
<polygon points="492.65,164.72 504.06,168.43 492.65,172.14 481.23,168.43" fill="#0e4429"/>
<polygon points="481.23,172.43 481.23,168.43 492.65,172.14 492.65,176.14" fill="#0c3b24"/>
<polygon points="492.65,176.14 492.65,172.14 504.06,168.43 504.06,172.43" fill="#0a321e"/>
<polygon points="372.81,172.05 384.23,175.76 372.81,179.47 361.40,175.76" fill="#161b22"/>
<polygon points="361.40,176.76 361.40,175.76 372.81,179.47 372.81,180.47" fill="#13171d"/>
<polygon points="372.81,180.47 372.81,179.47 384.23,175.76 384.23,176.76" fill="#101319"/>
<polygon points="399.44,172.05 410.86,175.76 399.44,179.47 388.03,175.76" fill="#161b22"/>
<polygon points="388.03,176.76 388.03,175.76 399.44,179.47 399.44,180.47" fill="#13171d"/>
<polygon points="399.44,180.47 399.44,179.47 410.86,175.76 410.86,176.76" fill="#101319"/>
<polygon points="426.07,172.05 437.49,175.76 426.07,179.47 414.66,175.76" fill="#161b22"/>
<polygon points="414.66,176.76 414.66,175.76 426.07,179.47 426.07,180.47" fill="#13171d"/>
<polygon points="426.07,180.47 426.07,179.47 437.49,175.76 437.49,176.76" fill="#101319"/>
<polygon points="479.33,172.05 490.75,175.76 479.33,179.47 467.92,175.76" fill="#161b22"/>
<polygon points="467.92,176.76 467.92,175.76 479.33,179.47 479.33,180.47" fill="#13171d"/>
<polygon points="479.33,180.47 479.33,179.47 490.75,175.76 490.75,176.76" fill="#101319"/>
<polygon points="532.59,172.05 544.00,175.76 532.59,179.47 521.18,175.76" fill="#161b22"/>
<polygon points="521.18,176.76 521.18,175.76 532.59,179.47 532.59,180.47" fill="#13171d"/>
<polygon points="532.59,180.47 532.59,179.47 544.00,175.76 544.00,176.76" fill="#101319"/>
<polygon points="452.70,169.05 464.12,172.76 452.70,176.47 441.29,172.76" fill="#0e4429"/>
<polygon points="441.29,176.76 441.29,172.76 452.70,176.47 452.70,180.47" fill="#0c3b24"/>
<polygon points="452.70,180.47 452.70,176.47 464.12,172.76 464.12,176.76" fill="#0a321e"/>
<polygon points="505.96,169.05 517.37,172.76 505.96,176.47 494.55,172.76" fill="#0e4429"/>
<polygon points="494.55,176.76 494.55,172.76 505.96,176.47 505.96,180.47" fill="#0c3b24"/>
<polygon points="505.96,180.47 505.96,176.47 517.37,172.76 517.37,176.76" fill="#0a321e"/>
<polygon points="386.13,176.38 397.54,180.08 386.13,183.79 374.72,180.08" fill="#161b22"/>
<polygon points="374.72,181.08 374.72,180.08 386.13,183.79 386.13,184.79" fill="#13171d"/>
<polygon points="386.13,184.79 386.13,183.79 397.54,180.08 397.54,181.08" fill="#101319"/>
<polygon points="492.65,176.38 504.06,180.08 492.65,183.79 481.23,180.08" fill="#161b22"/>
<polygon points="481.23,181.08 481.23,180.08 492.65,183.79 492.65,184.79" fill="#13171d"/>
<polygon points="492.65,184.79 492.65,183.79 504.06,180.08 504.06,181.08" fill="#101319"/>
<polygon points="439.39,173.38 450.80,177.08 439.39,180.79 427.98,177.08" fill="#0e4429"/>
<polygon points="427.98,181.08 427.98,177.08 439.39,180.79 439.39,184.79" fill="#0c3b24"/>
<polygon points="439.39,184.79 439.39,180.79 450.80,177.08 450.80,181.08" fill="#0a321e"/>
<polygon points="466.02,173.38 477.43,177.08 466.02,180.79 454.61,177.08" fill="#0e4429"/>
<polygon points="454.61,181.08 454.61,177.08 466.02,180.79 466.02,184.79" fill="#0c3b24"/>
<polygon points="466.02,184.79 466.02,180.79 477.43,177.08 477.43,181.08" fill="#0a321e"/>
<polygon points="519.28,173.38 530.69,177.08 519.28,180.79 507.86,177.08" fill="#0e4429"/>
<polygon points="507.86,181.08 507.86,177.08 519.28,180.79 519.28,184.79" fill="#0c3b24"/>
<polygon points="519.28,184.79 519.28,180.79 530.69,177.08 530.69,181.08" fill="#0a321e"/>
<polygon points="545.91,173.38 557.32,177.08 545.91,180.79 534.49,177.08" fill="#0e4429"/>
<polygon points="534.49,181.08 534.49,177.08 545.91,180.79 545.91,184.79" fill="#0c3b24"/>
<polygon points="545.91,184.79 545.91,180.79 557.32,177.08 557.32,181.08" fill="#0a321e"/>
<polygon points="412.76,167.38 424.17,171.08 412.76,174.79 401.35,171.08" fill="#26a641"/>
<polygon points="401.35,181.08 401.35,171.08 412.76,174.79 412.76,184.79" fill="#219239"/>
<polygon points="412.76,184.79 412.76,174.79 424.17,171.08 424.17,181.08" fill="#1c7a30"/>
<polygon points="426.07,180.70 437.49,184.41 426.07,188.12 414.66,184.41" fill="#161b22"/>
<polygon points="414.66,185.41 414.66,184.41 426.07,188.12 426.07,189.12" fill="#13171d"/>
<polygon points="426.07,189.12 426.07,188.12 437.49,184.41 437.49,185.41" fill="#101319"/>
<polygon points="532.59,180.70 544.00,184.41 532.59,188.12 521.18,184.41" fill="#161b22"/>
<polygon points="521.18,185.41 521.18,184.41 532.59,188.12 532.59,189.12" fill="#13171d"/>
<polygon points="532.59,189.12 532.59,188.12 544.00,184.41 544.00,185.41" fill="#101319"/>
<polygon points="559.22,180.70 570.63,184.41 559.22,188.12 547.81,184.41" fill="#161b22"/>
<polygon points="547.81,185.41 547.81,184.41 559.22,188.12 559.22,189.12" fill="#13171d"/>
<polygon points="559.22,189.12 559.22,188.12 570.63,184.41 570.63,185.41" fill="#101319"/>
<polygon points="399.44,177.70 410.86,181.41 399.44,185.12 388.03,181.41" fill="#0e4429"/>
<polygon points="388.03,185.41 388.03,181.41 399.44,185.12 399.44,189.12" fill="#0c3b24"/>
<polygon points="399.44,189.12 399.44,185.12 410.86,181.41 410.86,185.41" fill="#0a321e"/>
<polygon points="452.70,177.70 464.12,181.41 452.70,185.12 441.29,181.41" fill="#0e4429"/>
<polygon points="441.29,185.41 441.29,181.41 452.70,185.12 452.70,189.12" fill="#0c3b24"/>
<polygon points="452.70,189.12 452.70,185.12 464.12,181.41 464.12,185.41" fill="#0a321e"/>
<polygon points="479.33,177.70 490.75,181.41 479.33,185.12 467.92,181.41" fill="#0e4429"/>
<polygon points="467.92,185.41 467.92,181.41 479.33,185.12 479.33,189.12" fill="#0c3b24"/>
<polygon points="479.33,189.12 479.33,185.12 490.75,181.41 490.75,185.41" fill="#0a321e"/>
<polygon points="505.96,177.70 517.37,181.41 505.96,185.12 494.55,181.41" fill="#0e4429"/>
<polygon points="494.55,185.41 494.55,181.41 505.96,185.12 505.96,189.12" fill="#0c3b24"/>
<polygon points="505.96,189.12 505.96,185.12 517.37,181.41 517.37,185.41" fill="#0a321e"/>
<polygon points="439.39,185.03 450.80,188.74 439.39,192.44 427.98,188.74" fill="#161b22"/>
<polygon points="427.98,189.74 427.98,188.74 439.39,192.44 439.39,193.44" fill="#13171d"/>
<polygon points="439.39,193.44 439.39,192.44 450.80,188.74 450.80,189.74" fill="#101319"/>
<polygon points="545.91,185.03 557.32,188.74 545.91,192.44 534.49,188.74" fill="#161b22"/>
<polygon points="534.49,189.74 534.49,188.74 545.91,192.44 545.91,193.44" fill="#13171d"/>
<polygon points="545.91,193.44 545.91,192.44 557.32,188.74 557.32,189.74" fill="#101319"/>
<polygon points="412.76,182.03 424.17,185.74 412.76,189.44 401.35,185.74" fill="#0e4429"/>
<polygon points="401.35,189.74 401.35,185.74 412.76,189.44 412.76,193.44" fill="#0c3b24"/>
<polygon points="412.76,193.44 412.76,189.44 424.17,185.74 424.17,189.74" fill="#0a321e"/>
<polygon points="492.65,182.03 504.06,185.74 492.65,189.44 481.23,185.74" fill="#0e4429"/>
<polygon points="481.23,189.74 481.23,185.74 492.65,189.44 492.65,193.44" fill="#0c3b24"/>
<polygon points="492.65,193.44 492.65,189.44 504.06,185.74 504.06,189.74" fill="#0a321e"/>
<polygon points="519.28,182.03 530.69,185.74 519.28,189.44 507.86,185.74" fill="#0e4429"/>
<polygon points="507.86,189.74 507.86,185.74 519.28,189.44 519.28,193.44" fill="#0c3b24"/>
<polygon points="519.28,193.44 519.28,189.44 530.69,185.74 530.69,189.74" fill="#0a321e"/>
<polygon points="572.54,179.03 583.95,182.74 572.54,186.44 561.12,182.74" fill="#006d32"/>
<polygon points="561.12,189.74 561.12,182.74 572.54,186.44 572.54,193.44" fill="#005f2c"/>
<polygon points="572.54,193.44 572.54,186.44 583.95,182.74 583.95,189.74" fill="#005025"/>
<polygon points="466.02,173.03 477.43,176.74 466.02,180.44 454.61,176.74" fill="#39d353"/>
<polygon points="454.61,189.74 454.61,176.74 466.02,180.44 466.02,193.44" fill="#32b949"/>
<polygon points="466.02,193.44 466.02,180.44 477.43,176.74 477.43,189.74" fill="#2a9c3d"/>
<polygon points="426.07,189.35 437.49,193.06 426.07,196.77 414.66,193.06" fill="#161b22"/>
<polygon points="414.66,194.06 414.66,193.06 426.07,196.77 426.07,197.77" fill="#13171d"/>
<polygon points="426.07,197.77 426.07,196.77 437.49,193.06 437.49,194.06" fill="#101319"/>
<polygon points="479.33,189.35 490.75,193.06 479.33,196.77 467.92,193.06" fill="#161b22"/>
<polygon points="467.92,194.06 467.92,193.06 479.33,196.77 479.33,197.77" fill="#13171d"/>
<polygon points="479.33,197.77 479.33,196.77 490.75,193.06 490.75,194.06" fill="#101319"/>
<polygon points="505.96,189.35 517.37,193.06 505.96,196.77 494.55,193.06" fill="#161b22"/>
<polygon points="494.55,194.06 494.55,193.06 505.96,196.77 505.96,197.77" fill="#13171d"/>
<polygon points="505.96,197.77 505.96,196.77 517.37,193.06 517.37,194.06" fill="#101319"/>
<polygon points="452.70,186.35 464.12,190.06 452.70,193.77 441.29,190.06" fill="#0e4429"/>
<polygon points="441.29,194.06 441.29,190.06 452.70,193.77 452.70,197.77" fill="#0c3b24"/>
<polygon points="452.70,197.77 452.70,193.77 464.12,190.06 464.12,194.06" fill="#0a321e"/>
<polygon points="532.59,186.35 544.00,190.06 532.59,193.77 521.18,190.06" fill="#0e4429"/>
<polygon points="521.18,194.06 521.18,190.06 532.59,193.77 532.59,197.77" fill="#0c3b24"/>
<polygon points="532.59,197.77 532.59,193.77 544.00,190.06 544.00,194.06" fill="#0a321e"/>
<polygon points="559.22,186.35 570.63,190.06 559.22,193.77 547.81,190.06" fill="#0e4429"/>
<polygon points="547.81,194.06 547.81,190.06 559.22,193.77 559.22,197.77" fill="#0c3b24"/>
<polygon points="559.22,197.77 559.22,193.77 570.63,190.06 570.63,194.06" fill="#0a321e"/>
<polygon points="585.85,186.35 597.26,190.06 585.85,193.77 574.44,190.06" fill="#0e4429"/>
<polygon points="574.44,194.06 574.44,190.06 585.85,193.77 585.85,197.77" fill="#0c3b24"/>
<polygon points="585.85,197.77 585.85,193.77 597.26,190.06 597.26,194.06" fill="#0a321e"/>
<polygon points="599.17,193.68 610.58,197.39 599.17,201.10 587.75,197.39" fill="#161b22"/>
<polygon points="587.75,198.39 587.75,197.39 599.17,201.10 599.17,202.10" fill="#13171d"/>
<polygon points="599.17,202.10 599.17,201.10 610.58,197.39 610.58,198.39" fill="#101319"/>
<polygon points="439.39,190.68 450.80,194.39 439.39,198.10 427.98,194.39" fill="#0e4429"/>
<polygon points="427.98,198.39 427.98,194.39 439.39,198.10 439.39,202.10" fill="#0c3b24"/>
<polygon points="439.39,202.10 439.39,198.10 450.80,194.39 450.80,198.39" fill="#0a321e"/>
<polygon points="466.02,190.68 477.43,194.39 466.02,198.10 454.61,194.39" fill="#0e4429"/>
<polygon points="454.61,198.39 454.61,194.39 466.02,198.10 466.02,202.10" fill="#0c3b24"/>
<polygon points="466.02,202.10 466.02,198.10 477.43,194.39 477.43,198.39" fill="#0a321e"/>
<polygon points="492.65,190.68 504.06,194.39 492.65,198.10 481.23,194.39" fill="#0e4429"/>
<polygon points="481.23,198.39 481.23,194.39 492.65,198.10 492.65,202.10" fill="#0c3b24"/>
<polygon points="492.65,202.10 492.65,198.10 504.06,194.39 504.06,198.39" fill="#0a321e"/>
<polygon points="519.28,190.68 530.69,194.39 519.28,198.10 507.86,194.39" fill="#0e4429"/>
<polygon points="507.86,198.39 507.86,194.39 519.28,198.10 519.28,202.10" fill="#0c3b24"/>
<polygon points="519.28,202.10 519.28,198.10 530.69,194.39 530.69,198.39" fill="#0a321e"/>
<polygon points="545.91,190.68 557.32,194.39 545.91,198.10 534.49,194.39" fill="#0e4429"/>
<polygon points="534.49,198.39 534.49,194.39 545.91,198.10 545.91,202.10" fill="#0c3b24"/>
<polygon points="545.91,202.10 545.91,198.10 557.32,194.39 557.32,198.39" fill="#0a321e"/>
<polygon points="572.54,187.68 583.95,191.39 572.54,195.10 561.12,191.39" fill="#006d32"/>
<polygon points="561.12,198.39 561.12,191.39 572.54,195.10 572.54,202.10" fill="#005f2c"/>
<polygon points="572.54,202.10 572.54,195.10 583.95,191.39 583.95,198.39" fill="#005025"/>
<polygon points="452.70,198.01 464.12,201.72 452.70,205.42 441.29,201.72" fill="#161b22"/>
<polygon points="441.29,202.72 441.29,201.72 452.70,205.42 452.70,206.42" fill="#13171d"/>
<polygon points="452.70,206.42 452.70,205.42 464.12,201.72 464.12,202.72" fill="#101319"/>
<polygon points="479.33,198.01 490.75,201.72 479.33,205.42 467.92,201.72" fill="#161b22"/>
<polygon points="467.92,202.72 467.92,201.72 479.33,205.42 479.33,206.42" fill="#13171d"/>
<polygon points="479.33,206.42 479.33,205.42 490.75,201.72 490.75,202.72" fill="#101319"/>
<polygon points="505.96,195.01 517.37,198.72 505.96,202.42 494.55,198.72" fill="#0e4429"/>
<polygon points="494.55,202.72 494.55,198.72 505.96,202.42 505.96,206.42" fill="#0c3b24"/>
<polygon points="505.96,206.42 505.96,202.42 517.37,198.72 517.37,202.72" fill="#0a321e"/>
<polygon points="585.85,195.01 597.26,198.72 585.85,202.42 574.44,198.72" fill="#0e4429"/>
<polygon points="574.44,202.72 574.44,198.72 585.85,202.42 585.85,206.42" fill="#0c3b24"/>
<polygon points="585.85,206.42 585.85,202.42 597.26,198.72 597.26,202.72" fill="#0a321e"/>
<polygon points="612.48,195.01 623.89,198.72 612.48,202.42 601.07,198.72" fill="#0e4429"/>
<polygon points="601.07,202.72 601.07,198.72 612.48,202.42 612.48,206.42" fill="#0c3b24"/>
<polygon points="612.48,206.42 612.48,202.42 623.89,198.72 623.89,202.72" fill="#0a321e"/>
<polygon points="532.59,192.01 544.00,195.72 532.59,199.42 521.18,195.72" fill="#006d32"/>
<polygon points="521.18,202.72 521.18,195.72 532.59,199.42 532.59,206.42" fill="#005f2c"/>
<polygon points="532.59,206.42 532.59,199.42 544.00,195.72 544.00,202.72" fill="#005025"/>
<polygon points="559.22,189.01 570.63,192.72 559.22,196.42 547.81,192.72" fill="#26a641"/>
<polygon points="547.81,202.72 547.81,192.72 559.22,196.42 559.22,206.42" fill="#219239"/>
<polygon points="559.22,206.42 559.22,196.42 570.63,192.72 570.63,202.72" fill="#1c7a30"/>
<polygon points="466.02,202.33 477.43,206.04 466.02,209.75 454.61,206.04" fill="#161b22"/>
<polygon points="454.61,207.04 454.61,206.04 466.02,209.75 466.02,210.75" fill="#13171d"/>
<polygon points="466.02,210.75 466.02,209.75 477.43,206.04 477.43,207.04" fill="#101319"/>
<polygon points="519.28,199.33 530.69,203.04 519.28,206.75 507.86,203.04" fill="#0e4429"/>
<polygon points="507.86,207.04 507.86,203.04 519.28,206.75 519.28,210.75" fill="#0c3b24"/>
<polygon points="519.28,210.75 519.28,206.75 530.69,203.04 530.69,207.04" fill="#0a321e"/>
<polygon points="572.54,199.33 583.95,203.04 572.54,206.75 561.12,203.04" fill="#0e4429"/>
<polygon points="561.12,207.04 561.12,203.04 572.54,206.75 572.54,210.75" fill="#0c3b24"/>
<polygon points="572.54,210.75 572.54,206.75 583.95,203.04 583.95,207.04" fill="#0a321e"/>
<polygon points="625.80,199.33 637.21,203.04 625.80,206.75 614.38,203.04" fill="#0e4429"/>
<polygon points="614.38,207.04 614.38,203.04 625.80,206.75 625.80,210.75" fill="#0c3b24"/>
<polygon points="625.80,210.75 625.80,206.75 637.21,203.04 637.21,207.04" fill="#0a321e"/>
<polygon points="545.91,196.33 557.32,200.04 545.91,203.75 534.49,200.04" fill="#006d32"/>
<polygon points="534.49,207.04 534.49,200.04 545.91,203.75 545.91,210.75" fill="#005f2c"/>
<polygon points="545.91,210.75 545.91,203.75 557.32,200.04 557.32,207.04" fill="#005025"/>
<polygon points="599.17,196.33 610.58,200.04 599.17,203.75 587.75,200.04" fill="#006d32"/>
<polygon points="587.75,207.04 587.75,200.04 599.17,203.75 599.17,210.75" fill="#005f2c"/>
<polygon points="599.17,210.75 599.17,203.75 610.58,200.04 610.58,207.04" fill="#005025"/>
<polygon points="492.65,193.33 504.06,197.04 492.65,200.75 481.23,197.04" fill="#26a641"/>
<polygon points="481.23,207.04 481.23,197.04 492.65,200.75 492.65,210.75" fill="#219239"/>
<polygon points="492.65,210.75 492.65,200.75 504.06,197.04 504.06,207.04" fill="#1c7a30"/>
<polygon points="505.96,206.66 517.37,210.37 505.96,214.08 494.55,210.37" fill="#161b22"/>
<polygon points="494.55,211.37 494.55,210.37 505.96,214.08 505.96,215.08" fill="#13171d"/>
<polygon points="505.96,215.08 505.96,214.08 517.37,210.37 517.37,211.37" fill="#101319"/>
<polygon points="479.33,203.66 490.75,207.37 479.33,211.08 467.92,207.37" fill="#0e4429"/>
<polygon points="467.92,211.37 467.92,207.37 479.33,211.08 479.33,215.08" fill="#0c3b24"/>
<polygon points="479.33,215.08 479.33,211.08 490.75,207.37 490.75,211.37" fill="#0a321e"/>
<polygon points="532.59,203.66 544.00,207.37 532.59,211.08 521.18,207.37" fill="#0e4429"/>
<polygon points="521.18,211.37 521.18,207.37 532.59,211.08 532.59,215.08" fill="#0c3b24"/>
<polygon points="532.59,215.08 532.59,211.08 544.00,207.37 544.00,211.37" fill="#0a321e"/>
<polygon points="559.22,203.66 570.63,207.37 559.22,211.08 547.81,207.37" fill="#0e4429"/>
<polygon points="547.81,211.37 547.81,207.37 559.22,211.08 559.22,215.08" fill="#0c3b24"/>
<polygon points="559.22,215.08 559.22,211.08 570.63,207.37 570.63,211.37" fill="#0a321e"/>
<polygon points="585.85,203.66 597.26,207.37 585.85,211.08 574.44,207.37" fill="#0e4429"/>
<polygon points="574.44,211.37 574.44,207.37 585.85,211.08 585.85,215.08" fill="#0c3b24"/>
<polygon points="585.85,215.08 585.85,211.08 597.26,207.37 597.26,211.37" fill="#0a321e"/>
<polygon points="612.48,203.66 623.89,207.37 612.48,211.08 601.07,207.37" fill="#0e4429"/>
<polygon points="601.07,211.37 601.07,207.37 612.48,211.08 612.48,215.08" fill="#0c3b24"/>
<polygon points="612.48,215.08 612.48,211.08 623.89,207.37 623.89,211.37" fill="#0a321e"/>
<polygon points="639.11,200.66 650.52,204.37 639.11,208.08 627.70,204.37" fill="#006d32"/>
<polygon points="627.70,211.37 627.70,204.37 639.11,208.08 639.11,215.08" fill="#005f2c"/>
<polygon points="639.11,215.08 639.11,208.08 650.52,204.37 650.52,211.37" fill="#005025"/>
<polygon points="652.42,210.99 663.84,214.69 652.42,218.40 641.01,214.69" fill="#161b22"/>
<polygon points="641.01,215.69 641.01,214.69 652.42,218.40 652.42,219.40" fill="#13171d"/>
<polygon points="652.42,219.40 652.42,218.40 663.84,214.69 663.84,215.69" fill="#101319"/>
<polygon points="492.65,207.99 504.06,211.69 492.65,215.40 481.23,211.69" fill="#0e4429"/>
<polygon points="481.23,215.69 481.23,211.69 492.65,215.40 492.65,219.40" fill="#0c3b24"/>
<polygon points="492.65,219.40 492.65,215.40 504.06,211.69 504.06,215.69" fill="#0a321e"/>
<polygon points="519.28,207.99 530.69,211.69 519.28,215.40 507.86,211.69" fill="#0e4429"/>
<polygon points="507.86,215.69 507.86,211.69 519.28,215.40 519.28,219.40" fill="#0c3b24"/>
<polygon points="519.28,219.40 519.28,215.40 530.69,211.69 530.69,215.69" fill="#0a321e"/>
<polygon points="545.91,207.99 557.32,211.69 545.91,215.40 534.49,211.69" fill="#0e4429"/>
<polygon points="534.49,215.69 534.49,211.69 545.91,215.40 545.91,219.40" fill="#0c3b24"/>
<polygon points="545.91,219.40 545.91,215.40 557.32,211.69 557.32,215.69" fill="#0a321e"/>
<polygon points="572.54,207.99 583.95,211.69 572.54,215.40 561.12,211.69" fill="#0e4429"/>
<polygon points="561.12,215.69 561.12,211.69 572.54,215.40 572.54,219.40" fill="#0c3b24"/>
<polygon points="572.54,219.40 572.54,215.40 583.95,211.69 583.95,215.69" fill="#0a321e"/>
<polygon points="599.17,207.99 610.58,211.69 599.17,215.40 587.75,211.69" fill="#0e4429"/>
<polygon points="587.75,215.69 587.75,211.69 599.17,215.40 599.17,219.40" fill="#0c3b24"/>
<polygon points="599.17,219.40 599.17,215.40 610.58,211.69 610.58,215.69" fill="#0a321e"/>
<polygon points="625.80,207.99 637.21,211.69 625.80,215.40 614.38,211.69" fill="#0e4429"/>
<polygon points="614.38,215.69 614.38,211.69 625.80,215.40 625.80,219.40" fill="#0c3b24"/>
<polygon points="625.80,219.40 625.80,215.40 637.21,211.69 637.21,215.69" fill="#0a321e"/>
<polygon points="505.96,215.31 517.37,219.02 505.96,222.73 494.55,219.02" fill="#161b22"/>
<polygon points="494.55,220.02 494.55,219.02 505.96,222.73 505.96,223.73" fill="#13171d"/>
<polygon points="505.96,223.73 505.96,222.73 517.37,219.02 517.37,220.02" fill="#101319"/>
<polygon points="559.22,215.31 570.63,219.02 559.22,222.73 547.81,219.02" fill="#161b22"/>
<polygon points="547.81,220.02 547.81,219.02 559.22,222.73 559.22,223.73" fill="#13171d"/>
<polygon points="559.22,223.73 559.22,222.73 570.63,219.02 570.63,220.02" fill="#101319"/>
<polygon points="665.74,215.31 677.15,219.02 665.74,222.73 654.33,219.02" fill="#161b22"/>
<polygon points="654.33,220.02 654.33,219.02 665.74,222.73 665.74,223.73" fill="#13171d"/>
<polygon points="665.74,223.73 665.74,222.73 677.15,219.02 677.15,220.02" fill="#101319"/>
<polygon points="532.59,212.31 544.00,216.02 532.59,219.73 521.18,216.02" fill="#0e4429"/>
<polygon points="521.18,220.02 521.18,216.02 532.59,219.73 532.59,223.73" fill="#0c3b24"/>
<polygon points="532.59,223.73 532.59,219.73 544.00,216.02 544.00,220.02" fill="#0a321e"/>
<polygon points="585.85,212.31 597.26,216.02 585.85,219.73 574.44,216.02" fill="#0e4429"/>
<polygon points="574.44,220.02 574.44,216.02 585.85,219.73 585.85,223.73" fill="#0c3b24"/>
<polygon points="585.85,223.73 585.85,219.73 597.26,216.02 597.26,220.02" fill="#0a321e"/>
<polygon points="612.48,212.31 623.89,216.02 612.48,219.73 601.07,216.02" fill="#0e4429"/>
<polygon points="601.07,220.02 601.07,216.02 612.48,219.73 612.48,223.73" fill="#0c3b24"/>
<polygon points="612.48,223.73 612.48,219.73 623.89,216.02 623.89,220.02" fill="#0a321e"/>
<polygon points="639.11,212.31 650.52,216.02 639.11,219.73 627.70,216.02" fill="#0e4429"/>
<polygon points="627.70,220.02 627.70,216.02 639.11,219.73 639.11,223.73" fill="#0c3b24"/>
<polygon points="639.11,223.73 639.11,219.73 650.52,216.02 650.52,220.02" fill="#0a321e"/>
<polygon points="519.28,219.64 530.69,223.35 519.28,227.05 507.86,223.35" fill="#161b22"/>
<polygon points="507.86,224.35 507.86,223.35 519.28,227.05 519.28,228.05" fill="#13171d"/>
<polygon points="519.28,228.05 519.28,227.05 530.69,223.35 530.69,224.35" fill="#101319"/>
<polygon points="679.05,219.64 690.47,223.35 679.05,227.05 667.64,223.35" fill="#161b22"/>
<polygon points="667.64,224.35 667.64,223.35 679.05,227.05 679.05,228.05" fill="#13171d"/>
<polygon points="679.05,228.05 679.05,227.05 690.47,223.35 690.47,224.35" fill="#101319"/>
<polygon points="545.91,216.64 557.32,220.35 545.91,224.05 534.49,220.35" fill="#0e4429"/>
<polygon points="534.49,224.35 534.49,220.35 545.91,224.05 545.91,228.05" fill="#0c3b24"/>
<polygon points="545.91,228.05 545.91,224.05 557.32,220.35 557.32,224.35" fill="#0a321e"/>
<polygon points="572.54,216.64 583.95,220.35 572.54,224.05 561.12,220.35" fill="#0e4429"/>
<polygon points="561.12,224.35 561.12,220.35 572.54,224.05 572.54,228.05" fill="#0c3b24"/>
<polygon points="572.54,228.05 572.54,224.05 583.95,220.35 583.95,224.35" fill="#0a321e"/>
<polygon points="599.17,216.64 610.58,220.35 599.17,224.05 587.75,220.35" fill="#0e4429"/>
<polygon points="587.75,224.35 587.75,220.35 599.17,224.05 599.17,228.05" fill="#0c3b24"/>
<polygon points="599.17,228.05 599.17,224.05 610.58,220.35 610.58,224.35" fill="#0a321e"/>
<polygon points="625.80,216.64 637.21,220.35 625.80,224.05 614.38,220.35" fill="#0e4429"/>
<polygon points="614.38,224.35 614.38,220.35 625.80,224.05 625.80,228.05" fill="#0c3b24"/>
<polygon points="625.80,228.05 625.80,224.05 637.21,220.35 637.21,224.35" fill="#0a321e"/>
<polygon points="652.42,216.64 663.84,220.35 652.42,224.05 641.01,220.35" fill="#0e4429"/>
<polygon points="641.01,224.35 641.01,220.35 652.42,224.05 652.42,228.05" fill="#0c3b24"/>
<polygon points="652.42,228.05 652.42,224.05 663.84,220.35 663.84,224.35" fill="#0a321e"/>
<polygon points="585.85,223.96 597.26,227.67 585.85,231.38 574.44,227.67" fill="#161b22"/>
<polygon points="574.44,228.67 574.44,227.67 585.85,231.38 585.85,232.38" fill="#13171d"/>
<polygon points="585.85,232.38 585.85,231.38 597.26,227.67 597.26,228.67" fill="#101319"/>
<polygon points="665.74,223.96 677.15,227.67 665.74,231.38 654.33,227.67" fill="#161b22"/>
<polygon points="654.33,228.67 654.33,227.67 665.74,231.38 665.74,232.38" fill="#13171d"/>
<polygon points="665.74,232.38 665.74,231.38 677.15,227.67 677.15,228.67" fill="#101319"/>
<polygon points="692.37,223.96 703.78,227.67 692.37,231.38 680.96,227.67" fill="#161b22"/>
<polygon points="680.96,228.67 680.96,227.67 692.37,231.38 692.37,232.38" fill="#13171d"/>
<polygon points="692.37,232.38 692.37,231.38 703.78,227.67 703.78,228.67" fill="#101319"/>
<polygon points="532.59,220.96 544.00,224.67 532.59,228.38 521.18,224.67" fill="#0e4429"/>
<polygon points="521.18,228.67 521.18,224.67 532.59,228.38 532.59,232.38" fill="#0c3b24"/>
<polygon points="532.59,232.38 532.59,228.38 544.00,224.67 544.00,228.67" fill="#0a321e"/>
<polygon points="559.22,220.96 570.63,224.67 559.22,228.38 547.81,224.67" fill="#0e4429"/>
<polygon points="547.81,228.67 547.81,224.67 559.22,228.38 559.22,232.38" fill="#0c3b24"/>
<polygon points="559.22,232.38 559.22,228.38 570.63,224.67 570.63,228.67" fill="#0a321e"/>
<polygon points="612.48,220.96 623.89,224.67 612.48,228.38 601.07,224.67" fill="#0e4429"/>
<polygon points="601.07,228.67 601.07,224.67 612.48,228.38 612.48,232.38" fill="#0c3b24"/>
<polygon points="612.48,232.38 612.48,228.38 623.89,224.67 623.89,228.67" fill="#0a321e"/>
<polygon points="639.11,217.96 650.52,221.67 639.11,225.38 627.70,221.67" fill="#006d32"/>
<polygon points="627.70,228.67 627.70,221.67 639.11,225.38 639.11,232.38" fill="#005f2c"/>
<polygon points="639.11,232.38 639.11,225.38 650.52,221.67 650.52,228.67" fill="#005025"/>
<polygon points="545.91,228.29 557.32,232.00 545.91,235.71 534.49,232.00" fill="#161b22"/>
<polygon points="534.49,233.00 534.49,232.00 545.91,235.71 545.91,236.71" fill="#13171d"/>
<polygon points="545.91,236.71 545.91,235.71 557.32,232.00 557.32,233.00" fill="#101319"/>
<polygon points="572.54,228.29 583.95,232.00 572.54,235.71 561.12,232.00" fill="#161b22"/>
<polygon points="561.12,233.00 561.12,232.00 572.54,235.71 572.54,236.71" fill="#13171d"/>
<polygon points="572.54,236.71 572.54,235.71 583.95,232.00 583.95,233.00" fill="#101319"/>
<polygon points="599.17,228.29 610.58,232.00 599.17,235.71 587.75,232.00" fill="#161b22"/>
<polygon points="587.75,233.00 587.75,232.00 599.17,235.71 599.17,236.71" fill="#13171d"/>
<polygon points="599.17,236.71 599.17,235.71 610.58,232.00 610.58,233.00" fill="#101319"/>
<polygon points="652.42,225.29 663.84,229.00 652.42,232.71 641.01,229.00" fill="#0e4429"/>
<polygon points="641.01,233.00 641.01,229.00 652.42,232.71 652.42,236.71" fill="#0c3b24"/>
<polygon points="652.42,236.71 652.42,232.71 663.84,229.00 663.84,233.00" fill="#0a321e"/>
<polygon points="679.05,225.29 690.47,229.00 679.05,232.71 667.64,229.00" fill="#0e4429"/>
<polygon points="667.64,233.00 667.64,229.00 679.05,232.71 679.05,236.71" fill="#0c3b24"/>
<polygon points="679.05,236.71 679.05,232.71 690.47,229.00 690.47,233.00" fill="#0a321e"/>
<polygon points="625.80,222.29 637.21,226.00 625.80,229.71 614.38,226.00" fill="#006d32"/>
<polygon points="614.38,233.00 614.38,226.00 625.80,229.71 625.80,236.71" fill="#005f2c"/>
<polygon points="625.80,236.71 625.80,229.71 637.21,226.00 637.21,233.00" fill="#005025"/>
<polygon points="559.22,232.62 570.63,236.33 559.22,240.03 547.81,236.33" fill="#161b22"/>
<polygon points="547.81,237.33 547.81,236.33 559.22,240.03 559.22,241.03" fill="#13171d"/>
<polygon points="559.22,241.03 559.22,240.03 570.63,236.33 570.63,237.33" fill="#101319"/>
<polygon points="585.85,229.62 597.26,233.33 585.85,237.03 574.44,233.33" fill="#0e4429"/>
<polygon points="574.44,237.33 574.44,233.33 585.85,237.03 585.85,241.03" fill="#0c3b24"/>
<polygon points="585.85,241.03 585.85,237.03 597.26,233.33 597.26,237.33" fill="#0a321e"/>
<polygon points="612.48,229.62 623.89,233.33 612.48,237.03 601.07,233.33" fill="#0e4429"/>
<polygon points="601.07,237.33 601.07,233.33 612.48,237.03 612.48,241.03" fill="#0c3b24"/>
<polygon points="612.48,241.03 612.48,237.03 623.89,233.33 623.89,237.33" fill="#0a321e"/>
<polygon points="639.11,229.62 650.52,233.33 639.11,237.03 627.70,233.33" fill="#0e4429"/>
<polygon points="627.70,237.33 627.70,233.33 639.11,237.03 639.11,241.03" fill="#0c3b24"/>
<polygon points="639.11,241.03 639.11,237.03 650.52,233.33 650.52,237.33" fill="#0a321e"/>
<polygon points="665.74,229.62 677.15,233.33 665.74,237.03 654.33,233.33" fill="#0e4429"/>
<polygon points="654.33,237.33 654.33,233.33 665.74,237.03 665.74,241.03" fill="#0c3b24"/>
<polygon points="665.74,241.03 665.74,237.03 677.15,233.33 677.15,237.33" fill="#0a321e"/>
<polygon points="572.54,236.94 583.95,240.65 572.54,244.36 561.12,240.65" fill="#161b22"/>
<polygon points="561.12,241.65 561.12,240.65 572.54,244.36 572.54,245.36" fill="#13171d"/>
<polygon points="572.54,245.36 572.54,244.36 583.95,240.65 583.95,241.65" fill="#101319"/>
<polygon points="599.17,233.94 610.58,237.65 599.17,241.36 587.75,237.65" fill="#0e4429"/>
<polygon points="587.75,241.65 587.75,237.65 599.17,241.36 599.17,245.36" fill="#0c3b24"/>
<polygon points="599.17,245.36 599.17,241.36 610.58,237.65 610.58,241.65" fill="#0a321e"/>
<polygon points="625.80,233.94 637.21,237.65 625.80,241.36 614.38,237.65" fill="#0e4429"/>
<polygon points="614.38,241.65 614.38,237.65 625.80,241.36 625.80,245.36" fill="#0c3b24"/>
<polygon points="625.80,245.36 625.80,241.36 637.21,237.65 637.21,241.65" fill="#0a321e"/>
<polygon points="652.42,233.94 663.84,237.65 652.42,241.36 641.01,237.65" fill="#0e4429"/>
<polygon points="641.01,241.65 641.01,237.65 652.42,241.36 652.42,245.36" fill="#0c3b24"/>
<polygon points="652.42,245.36 652.42,241.36 663.84,237.65 663.84,241.65" fill="#0a321e"/>
<polygon points="585.85,241.27 597.26,244.98 585.85,248.69 574.44,244.98" fill="#161b22"/>
<polygon points="574.44,245.98 574.44,244.98 585.85,248.69 585.85,249.69" fill="#13171d"/>
<polygon points="585.85,249.69 585.85,248.69 597.26,244.98 597.26,245.98" fill="#101319"/>
<polygon points="612.48,238.27 623.89,241.98 612.48,245.69 601.07,241.98" fill="#0e4429"/>
<polygon points="601.07,245.98 601.07,241.98 612.48,245.69 612.48,249.69" fill="#0c3b24"/>
<polygon points="612.48,249.69 612.48,245.69 623.89,241.98 623.89,245.98" fill="#0a321e"/>
<polygon points="639.11,229.27 650.52,232.98 639.11,236.69 627.70,232.98" fill="#39d353"/>
<polygon points="627.70,245.98 627.70,232.98 639.11,236.69 639.11,249.69" fill="#32b949"/>
<polygon points="639.11,249.69 639.11,236.69 650.52,232.98 650.52,245.98" fill="#2a9c3d"/>
<polygon points="599.17,245.60 610.58,249.30 599.17,253.01 587.75,249.30" fill="#161b22"/>
<polygon points="587.75,250.30 587.75,249.30 599.17,253.01 599.17,254.01" fill="#13171d"/>
<polygon points="599.17,254.01 599.17,253.01 610.58,249.30 610.58,250.30" fill="#101319"/>
<text x="705.68" y="19.00" text-anchor="end" font-family='-apple-system, BlinkMacSystemFont, "Segoe UI", Helvetica, Arial, sans-serif' font-size="34" font-weight="700" fill="#39d353">273</text>
<text x="705.68" y="31.00" text-anchor="end" font-family='-apple-system, BlinkMacSystemFont, "Segoe UI", Helvetica, Arial, sans-serif' font-size="10" fill="#7d8590" letter-spacing="0.8">TOTAL COMMITS</text>
<text x="-93.20" y="198.57" font-family='-apple-system, BlinkMacSystemFont, "Segoe UI", Helvetica, Arial, sans-serif' font-size="11" fill="#7d8590" letter-spacing="0.8">MOST ACTIVE DAYS</text>
<rect x="-93.20" y="232.70" width="10" height="10.87" rx="1" fill="#006d32"/>
<text x="-88.20" y="259.57" text-anchor="middle" font-family='-apple-system, BlinkMacSystemFont, "Segoe UI", Helvetica, Arial, sans-serif' font-size="10" fill="#7d8590">S</text>
<rect x="-80.20" y="210.97" width="10" height="32.61" rx="1" fill="#006d32"/>
<text x="-75.20" y="259.57" text-anchor="middle" font-family='-apple-system, BlinkMacSystemFont, "Segoe UI", Helvetica, Arial, sans-serif' font-size="10" fill="#7d8590">M</text>
<rect x="-67.20" y="210.53" width="10" height="33.04" rx="1" fill="#006d32"/>
<text x="-62.20" y="259.57" text-anchor="middle" font-family='-apple-system, BlinkMacSystemFont, "Segoe UI", Helvetica, Arial, sans-serif' font-size="10" fill="#7d8590">T</text>
<rect x="-54.20" y="205.10" width="10" height="38.48" rx="1" fill="#006d32"/>
<text x="-49.20" y="259.57" text-anchor="middle" font-family='-apple-system, BlinkMacSystemFont, "Segoe UI", Helvetica, Arial, sans-serif' font-size="10" fill="#7d8590">W</text>
<rect x="-41.20" y="203.57" width="10" height="40.00" rx="1" fill="#39d353"/>
<text x="-36.20" y="259.57" text-anchor="middle" font-family='-apple-system, BlinkMacSystemFont, "Segoe UI", Helvetica, Arial, sans-serif' font-size="10" fill="#7d8590">T</text>
<rect x="-28.20" y="222.05" width="10" height="21.52" rx="1" fill="#006d32"/>
<text x="-23.20" y="259.57" text-anchor="middle" font-family='-apple-system, BlinkMacSystemFont, "Segoe UI", Helvetica, Arial, sans-serif' font-size="10" fill="#7d8590">F</text>
<rect x="-15.20" y="239.66" width="10" height="3.91" rx="1" fill="#006d32"/>
<text x="-10.20" y="259.57" text-anchor="middle" font-family='-apple-system, BlinkMacSystemFont, "Segoe UI", Helvetica, Arial, sans-serif' font-size="10" fill="#7d8590">S</text>
<text x="-93.20" y="275.57" font-family='-apple-system, BlinkMacSystemFont, "Segoe UI", Helvetica, Arial, sans-serif' font-size="8" fill="#7d8590" letter-spacing="0.6">DATA PULLED DAILY FROM GITHUB</text>
<text x="-93.20" y="285.57" font-family='-apple-system, BlinkMacSystemFont, "Segoe UI", Helvetica, Arial, sans-serif' font-size="8" fill="#7d8590" letter-spacing="0.6">CONTRIBUTION ACTIVITY</text>
</svg>